<svg version="1.1" id="Layer_1" xmlns="http://www.w3.org/2000/svg" xmlns:xlink="http://www.w3.org/1999/xlink" x="0px" y="0px"
	 width="100%" viewBox="0 0 300 282" enable-background="new 0 0 300 282" xml:space="preserve">
<path fill="#583E2D" opacity="1.000000" stroke="none" 
	d="
M171.000000,283.000000 
	C114.000008,283.000000 57.500015,283.000000 1.000015,283.000000 
	C1.000010,189.000015 1.000010,95.000038 1.000005,1.000040 
	C100.999969,1.000027 200.999939,1.000027 300.999939,1.000013 
	C300.999939,94.999962 300.999939,188.999924 300.999969,282.999939 
	C257.833344,283.000000 214.666672,283.000000 171.000000,283.000000 
M253.384369,43.264454 
	C252.572678,43.436535 251.760986,43.608616 250.114532,43.758472 
	C247.093842,44.589470 243.917603,45.067024 241.080658,46.315544 
	C231.269684,50.633286 226.097458,59.949818 219.091476,67.289742 
	C219.029617,67.354561 219.364578,67.798164 219.865631,68.691032 
	C223.270142,63.432835 228.301559,61.511433 234.820541,61.090969 
	C239.531677,58.355858 244.242813,55.620747 249.498810,52.659798 
	C250.372650,51.877487 251.246490,51.095173 252.700775,50.054798 
	C253.454529,49.330669 254.208282,48.606544 255.531906,47.600101 
	C256.784454,46.487507 258.036987,45.374912 260.279358,43.383064 
	C257.175171,43.383064 255.591248,43.383064 253.384369,43.264454 
M213.630798,89.993446 
	C213.630798,89.993446 213.237610,89.987228 213.084290,89.179039 
	C213.768753,78.275085 214.530731,77.550224 225.162430,78.063820 
	C234.805527,78.529655 243.008026,75.002396 250.311768,69.030502 
	C251.304138,68.219109 251.977570,67.017632 252.798676,65.996765 
	C245.908401,65.866638 239.472931,66.102180 233.587234,68.022675 
	C227.832977,69.900291 222.639511,73.496536 217.199860,76.338364 
	C216.687073,75.979744 216.174286,75.621117 215.661499,75.262497 
	C221.446335,70.610802 215.725266,67.073067 215.945404,62.371525 
	C216.641144,61.088387 218.205734,59.474968 217.867371,58.584915 
	C216.907227,56.059086 215.648819,52.997936 213.559006,51.792393 
	C212.295929,51.063766 207.957352,52.897781 207.359100,54.474968 
	C206.583191,56.520496 207.775177,59.642693 208.894516,61.920883 
	C209.368835,62.886284 211.812439,62.884125 213.645035,64.165398 
	C215.013077,69.773842 214.785172,75.049637 211.093979,79.382256 
	C209.067871,74.778748 207.120483,70.354103 204.899643,65.307487 
	C200.787659,60.100735 195.434219,57.107708 189.294525,55.516724 
	C188.825958,55.993565 188.357376,56.470402 187.888809,56.947243 
	C192.290802,63.284824 196.692810,69.622406 201.456345,76.537254 
	C202.696304,77.314346 203.859940,78.271416 205.190186,78.835663 
	C209.647949,80.726532 210.203140,84.202011 209.633453,88.654602 
	C206.296082,88.482796 203.292419,88.328178 200.238464,88.170967 
	C200.145981,89.808769 200.082779,90.928223 199.433731,91.686600 
	C195.548386,86.118179 191.663025,80.549759 187.777679,74.981339 
	C187.286667,75.233200 186.795654,75.485054 186.304642,75.736916 
	C186.086243,79.100525 185.867844,82.464142 185.653549,85.764442 
	C176.760239,85.877029 174.027710,82.423225 175.498749,74.408409 
	C177.726883,62.268700 172.483459,51.915646 167.338318,40.489117 
	C162.266891,50.472992 162.352142,59.379372 166.666260,68.316765 
	C168.827896,72.794945 171.128479,77.206039 172.949005,82.106857 
	C172.820831,82.269226 172.692657,82.431587 171.858795,82.497185 
	C165.653625,79.733017 161.035263,75.096710 158.323654,69.080902 
	C153.570831,58.536606 144.951889,53.858799 134.305725,51.852306 
	C131.738419,51.368443 129.079575,51.370228 126.462814,51.148682 
	C131.730255,58.639332 137.247849,65.681190 145.762405,66.930344 
	C154.215622,68.170486 158.892853,72.755875 162.166885,79.873009 
	C162.000824,80.042732 161.834778,80.212456 160.993530,80.157639 
	C149.111969,73.429153 137.352295,74.911087 124.740852,80.345871 
	C126.382744,81.584450 127.217896,82.372414 128.188156,82.921783 
	C137.261765,88.059326 146.599884,87.397102 156.221130,84.548767 
	C159.230118,83.657967 162.773438,83.428894 165.824753,84.071579 
	C171.488297,85.264473 176.910339,87.570587 182.551239,88.917793 
	C185.536514,89.630753 187.013016,90.965851 187.908218,93.855560 
	C190.313751,101.620667 195.109955,106.720703 203.237961,109.487816 
	C208.253403,111.195267 214.396149,113.004852 217.045746,120.715057 
	C213.809799,119.750763 211.707993,119.158600 209.628174,118.497185 
	C205.898575,117.311111 202.886307,118.379745 201.276657,121.860588 
	C199.775879,125.105988 201.118088,127.929840 204.347778,129.191620 
	C207.917877,130.586395 210.932724,129.312210 212.658997,125.806709 
	C214.896957,121.262115 217.579865,120.594696 221.672287,124.028015 
	C234.284882,134.609344 249.118027,137.667465 265.055359,136.896072 
	C266.192596,136.841019 267.270447,135.559174 268.375916,134.847748 
	C267.338715,133.532990 266.541656,131.782898 265.190369,131.037537 
	C264.054169,130.410812 262.249512,131.136154 260.781097,130.947952 
	C253.396164,130.001389 245.962234,129.253326 238.686295,127.752846 
	C236.519821,127.306061 234.809601,124.646797 232.852539,122.260956 
	C233.000473,120.198189 232.681564,117.962074 233.372665,116.101013 
	C237.615128,104.676483 233.606216,94.188744 230.486450,81.999954 
	C228.006805,86.367508 226.929581,90.959152 224.501205,91.844406 
	C221.615280,92.896461 217.567856,90.762390 213.630798,89.993446 
M35.487827,85.631081 
	C34.346584,86.311424 32.885372,86.738167 32.113895,87.711563 
	C24.886530,96.830612 24.156326,111.743111 30.320089,121.635689 
	C38.536304,134.822342 58.134304,135.529526 67.304764,122.970245 
	C74.440659,113.197350 73.699509,94.158142 66.001556,84.867630 
	C59.084335,76.519371 44.129528,75.854576 39.120506,85.999054 
	C38.080360,85.999367 37.040211,85.999687 35.487827,85.631081 
M182.219025,148.965714 
	C173.014267,146.552582 167.058807,147.905914 163.598969,153.848129 
	C159.434906,160.999771 159.390701,168.546753 163.482147,175.731583 
	C167.271423,182.385788 176.259552,184.126907 182.716019,179.844727 
	C183.928146,179.040802 185.031006,178.072144 186.156219,177.201218 
	C192.121307,183.180115 194.147369,183.312302 202.413956,178.438919 
	C211.606003,184.643677 220.111481,182.767456 228.291550,175.472275 
	C228.565964,177.808716 228.751953,179.392303 228.938797,180.983002 
	C231.017517,180.983002 232.778091,180.983002 234.933563,180.983002 
	C234.933563,175.895233 234.297592,170.983337 235.136475,166.337769 
	C235.797836,162.675354 237.551727,158.624557 240.118546,156.031113 
	C243.835876,152.275238 248.787384,154.731262 249.118759,160.037033 
	C249.336380,163.521515 248.859207,167.070801 249.300156,170.513306 
	C249.667908,173.384277 250.341171,176.528580 251.905045,178.865189 
	C254.681778,183.013992 261.202484,183.104324 265.872070,179.919846 
	C269.964142,177.129211 267.356689,174.714249 265.855377,171.648697 
	C264.934845,172.393738 264.398773,173.050217 263.708435,173.343552 
	C261.821777,174.145248 259.033936,175.918274 258.133423,175.248627 
	C256.656647,174.150406 255.946625,171.477020 255.706482,169.377182 
	C255.254623,165.426025 255.677872,161.370483 255.172562,157.430756 
	C254.446579,151.770432 250.771484,148.281464 245.129852,148.222046 
	C241.944305,148.188492 238.745331,149.429245 236.221237,149.956329 
	C233.999237,149.473282 231.826614,148.298599 230.425400,148.905365 
	C229.170029,149.448975 228.317215,151.893570 228.084900,153.607635 
	C227.708099,156.387802 227.990555,159.256409 227.982956,162.087662 
	C227.959686,170.753571 217.865250,177.970520 209.669479,175.181656 
	C206.213882,174.005783 204.366470,171.637451 203.918060,168.091644 
	C207.927979,168.091644 211.591141,168.531982 215.103317,167.991318 
	C220.763504,167.119995 224.235641,162.361282 223.834595,156.966919 
	C223.438446,151.638382 219.206131,147.948914 213.265442,147.753418 
	C206.010162,147.514664 200.027710,151.309479 198.203262,158.336975 
	C197.238464,162.053268 197.414154,166.216721 197.846909,170.092087 
	C198.139313,172.710449 197.871033,174.837402 195.329422,174.905579 
	C193.898788,174.943954 191.909119,173.015579 191.088181,171.482300 
	C190.302444,170.014725 190.613525,167.912735 190.597168,166.088181 
	C190.501678,155.434021 190.451645,144.779434 190.597153,133.542618 
	C190.050003,133.077515 189.502869,132.612396 188.117432,132.026291 
	C185.211823,131.584946 183.944183,132.626968 184.097900,135.757629 
	C184.297958,139.831787 184.084991,143.926224 183.528839,148.100357 
	C183.350250,148.384628 183.171661,148.668915 182.219025,148.965714 
M125.201965,148.607697 
	C121.098709,149.123932 117.141457,148.683487 113.012238,148.009125 
	C105.339783,146.756165 99.328224,150.850037 97.975731,158.518387 
	C97.118073,163.381104 97.336395,168.900391 98.786011,173.596161 
	C101.084595,181.041992 109.972664,184.176880 116.896454,180.859970 
	C118.805832,179.945282 120.456909,178.491425 122.220375,177.289124 
	C129.642044,184.311203 136.812469,183.360916 139.605728,174.817078 
	C140.573868,171.855850 140.870743,168.621704 141.094986,165.485092 
	C141.341553,162.036240 141.151184,158.556152 141.151184,154.920578 
	C142.510956,154.984650 143.679459,155.225708 144.787140,155.060043 
	C149.855164,154.302063 151.082397,156.759628 150.763138,161.349213 
	C150.487213,165.315643 150.556290,169.380966 151.099182,173.316177 
	C153.177322,188.379410 166.584595,196.833969 180.367203,191.730652 
	C179.540619,189.204788 179.893890,186.362732 175.370911,186.688507 
	C164.269943,187.488022 157.818314,181.554718 157.033417,170.357651 
	C156.754364,166.376801 156.991638,162.362244 156.900970,158.365158 
	C156.749039,151.667496 154.083847,149.127213 147.430115,148.827545 
	C145.164444,148.725510 142.914215,148.095718 140.676163,147.617050 
	C138.315582,147.112167 135.977982,146.499832 134.244293,146.082291 
	C134.244293,155.139435 134.507034,162.898117 134.042831,170.613083 
	C133.938568,172.345749 131.293060,173.925537 129.817444,175.575699 
	C128.818939,173.274887 127.185638,171.038651 126.943810,168.660889 
	C126.281479,162.148651 126.204567,155.576874 125.201965,148.607697 
M62.978798,181.746078 
	C72.089149,184.402695 79.956322,182.232727 86.605789,175.160614 
	C88.897346,189.141159 84.510521,194.271561 73.916100,190.572861 
	C70.850586,195.971207 71.509117,197.430191 77.415466,198.325775 
	C85.168083,199.501282 91.890587,195.540649 92.622314,187.539154 
	C93.566948,177.209702 92.852493,166.728516 92.852493,156.042709 
	C91.350174,156.042709 89.472290,156.042709 87.531754,156.042709 
	C87.268860,158.048584 87.132111,159.706055 86.824905,161.331299 
	C85.370201,169.027222 80.258621,174.707596 73.649536,176.045944 
	C64.225121,177.954407 56.516411,172.397369 55.063152,162.647430 
	C53.254456,150.512894 59.958488,139.771271 70.057449,138.888901 
	C72.323410,138.690918 74.796356,138.824402 76.928947,139.537827 
	C82.296097,141.333313 83.924698,147.095627 79.901016,151.021561 
	C76.838348,154.009811 78.065269,156.061234 80.034325,158.945709 
	C85.355186,156.203827 88.306290,152.238541 88.337677,146.307663 
	C88.382431,137.850128 81.500954,131.990402 71.801918,132.199966 
	C60.193287,132.450821 51.431068,140.179382 49.071960,152.248566 
	C46.424782,165.791519 51.242172,176.473511 62.978798,181.746078 
M140.037247,118.526131 
	C141.320023,115.052971 142.602798,111.579811 143.885559,108.106644 
	C144.361343,108.017723 144.837128,107.928802 145.312897,107.839882 
	C146.015244,109.925362 147.237000,111.986488 147.336105,114.100250 
	C148.008606,128.444016 161.210770,135.668015 173.797928,128.439590 
	C179.021851,125.439651 179.191620,124.608795 175.525742,119.028770 
	C170.802811,123.398651 165.586060,126.534760 158.989929,123.504089 
	C155.552643,121.924789 154.304932,118.806671 153.991806,115.013184 
	C166.120255,116.928856 172.114746,115.046715 174.342804,108.870041 
	C176.006866,104.256828 174.136459,99.317917 169.805191,96.888268 
	C163.195831,93.180695 156.253830,95.562653 149.390823,103.873062 
	C144.811432,102.717918 143.623062,93.076332 136.144928,98.734924 
	C138.687164,107.570679 135.873932,115.052849 130.512817,122.477989 
	C127.450089,115.375793 124.534988,109.037064 121.984543,102.554855 
	C120.260361,98.172638 117.565392,96.748985 113.368607,98.357597 
	C117.364769,108.216705 121.341507,118.027779 125.318024,127.838936 
	C125.443031,128.147369 125.538269,128.471451 125.694176,128.763229 
	C127.083710,131.363770 131.497620,131.594574 133.554108,128.858139 
	C135.841721,125.814163 137.687851,122.438408 140.037247,118.526131 
M117.969925,129.819809 
	C123.070206,127.632721 121.485207,124.538536 119.868462,122.024429 
	C116.415520,122.837593 112.463890,124.975891 110.942139,123.844879 
	C108.631592,122.127602 107.751381,118.221230 106.765862,115.086823 
	C106.191299,113.259438 106.573074,111.124519 106.563629,109.127777 
	C106.546577,105.520546 106.558807,101.913177 106.558807,98.195938 
	C104.130905,98.195938 102.390312,98.195938 100.146477,98.195938 
	C100.146477,103.959785 100.049614,109.417168 100.172264,114.869606 
	C100.309486,120.970161 94.905907,125.681557 88.861366,124.558556 
	C84.921570,123.826584 83.845329,121.499847 85.894730,117.922165 
	C90.428276,110.007843 93.625076,101.619850 93.748039,92.435013 
	C93.795486,88.890404 93.214043,84.995018 91.658592,81.891144 
	C90.614418,79.807503 87.302231,77.599174 85.100754,77.693199 
	C82.646469,77.798019 80.019333,80.157341 78.016190,82.100914 
	C76.860626,83.222122 76.323914,85.456291 76.306770,87.197380 
	C76.206932,97.339752 75.484390,107.581429 76.615540,117.604088 
	C78.064095,130.439056 89.306786,134.912155 100.294189,127.904236 
	C101.106056,127.386421 101.886932,126.820038 102.853874,126.158859 
	C106.832573,130.617599 111.561073,132.229370 117.969925,129.819809 
M242.536835,104.971123 
	C240.776291,103.353027 239.015747,101.734932 237.255203,100.116837 
	C236.847336,100.323280 236.439453,100.529716 236.031586,100.736153 
	C236.635986,102.960449 236.875092,105.378387 237.928177,107.364838 
	C239.618057,110.552567 242.037903,113.348312 243.795120,116.506752 
	C245.649002,119.838921 247.607925,119.384247 250.812134,116.851227 
	C248.159637,113.000076 245.579559,109.254059 242.536835,104.971123 
M254.019485,213.570023 
	C257.317596,210.826447 255.663681,207.762955 254.920914,203.505463 
	C253.619232,205.478134 252.984818,206.439575 252.343948,207.410797 
	C250.963394,206.321533 249.741165,205.357208 247.718170,203.761063 
	C247.718170,207.640198 247.718170,210.551132 247.718170,214.787384 
	C249.201645,212.664948 249.918625,211.639175 250.675568,210.556198 
	C251.766312,211.651993 252.577774,212.467224 254.019485,213.570023 
M229.466156,205.245789 
	C227.373306,211.953598 226.010208,203.952789 223.985229,205.020645 
	C223.985229,207.858887 223.985229,210.702484 223.985229,214.705246 
	C225.714478,212.495087 226.621170,211.336243 227.842499,209.775253 
	C228.843369,211.442169 229.534988,212.594070 230.849777,214.783829 
	C231.542450,210.553452 233.405106,207.503799 229.466156,205.245789 
M242.594147,212.793289 
	C241.555923,212.159302 240.517700,211.525299 239.400848,210.843307 
	C240.468521,210.241714 241.370010,209.733749 242.881729,208.881927 
	C241.135452,208.253174 240.132080,207.891907 238.832138,207.423859 
	C240.337448,206.699661 241.507614,206.136719 242.677780,205.573776 
	C242.485443,205.039581 242.293106,204.505371 242.100769,203.971176 
	C240.119171,204.717911 237.002701,204.932831 236.358994,206.306503 
	C233.992844,211.355865 236.595642,214.208481 242.594147,212.793289 
M150.358170,210.511139 
	C150.178497,211.501175 149.998825,212.491226 149.939377,212.818878 
	C152.971939,212.818878 155.595642,212.818878 158.760834,212.818878 
	C157.496948,210.028564 156.164490,207.086853 154.832031,204.145142 
	C154.343857,204.194763 153.855682,204.244385 153.367523,204.294006 
	C152.462906,206.156296 151.558289,208.018600 150.358170,210.511139 
M166.538773,210.526596 
	C167.589310,211.627472 168.639832,212.728348 170.402069,214.575027 
	C170.402069,210.535248 170.402069,207.754410 170.402069,204.973557 
	C170.085938,204.946823 169.769806,204.920074 169.453659,204.893341 
	C169.101730,205.969360 168.749802,207.045395 168.356659,208.247452 
	C166.634567,206.768921 165.271439,205.598602 163.373169,203.968811 
	C163.373169,207.824890 163.373169,210.572067 163.373169,214.150238 
	C164.636597,212.258682 165.338348,211.208023 166.538773,210.526596 
M216.914673,211.288803 
	C215.933411,210.486938 214.952148,209.685074 213.970886,208.883209 
	C215.591324,207.935455 217.211761,206.987686 218.832184,206.039917 
	C218.863449,205.620529 218.894699,205.201141 218.925964,204.781754 
	C216.884567,204.974396 214.266129,204.476715 212.969650,205.560471 
	C211.756714,206.574387 210.997437,209.865082 211.757446,211.065079 
	C212.701859,212.556244 215.348694,213.316360 217.382004,213.649811 
	C218.758209,213.875519 218.873428,213.096924 216.914673,211.288803 
M123.605270,204.522827 
	C122.022125,207.331726 120.438980,210.140625 118.937195,212.805176 
	C122.556213,212.805176 125.207306,212.805176 128.570282,212.805176 
	C127.215919,210.217346 125.747162,207.410950 123.605270,204.522827 
M188.246857,206.953918 
	C188.573639,206.242706 188.900421,205.531494 189.171906,204.940643 
	C186.657944,205.202393 184.502502,205.426834 182.378510,205.647980 
	C182.378510,207.959457 182.378510,210.626587 182.378510,214.207657 
	C183.717606,212.728256 184.402725,211.971329 185.078629,211.224625 
	C186.484833,212.148712 187.763168,212.988770 189.518387,214.142212 
	C188.789520,211.246994 188.309921,209.341965 188.246857,206.953918 
M107.041168,89.440536 
	C105.583946,88.262970 104.231331,86.865814 102.586433,86.082222 
	C102.232491,85.913597 100.201172,87.889473 100.073959,89.006371 
	C99.945251,90.136322 101.452057,92.536736 101.840469,92.455627 
	C103.618088,92.084435 105.254608,91.037582 107.041168,89.440536 
M201.503571,204.493729 
	C202.196976,207.496765 202.890396,210.499786 203.918137,214.950806 
	C205.418701,210.679291 206.407166,207.865509 207.645203,204.341309 
	C205.678802,204.341309 203.946411,204.341309 201.503571,204.493729 
M134.906677,209.396133 
	C134.743317,207.869507 134.579941,206.342880 134.416580,204.816269 
	C133.745560,204.862610 133.074554,204.908951 132.403549,204.955307 
	C132.644989,207.777039 132.618622,210.674255 133.373230,213.351349 
	C133.510056,213.836792 136.846024,213.420502 140.098816,213.420502 
	C137.465958,211.708984 136.277817,210.936630 134.906677,209.396133 
M115.225357,207.023499 
	C115.229507,206.156860 115.233665,205.290222 115.237823,204.423584 
	C113.352158,204.423584 111.466492,204.423584 109.540260,204.423584 
	C110.906097,207.947556 111.964058,210.677200 113.457153,214.529510 
	C113.988380,211.325577 114.307373,209.401703 115.225357,207.023499 
M266.578308,189.073746 
	C266.986603,188.081390 267.394867,187.089020 267.803162,186.096664 
	C265.572327,185.844894 263.342987,185.489456 261.108978,185.457306 
	C260.787842,185.452682 259.975647,187.204514 260.223755,187.791092 
	C260.573486,188.617752 261.631989,189.495956 262.513580,189.655579 
	C263.568756,189.846634 264.756866,189.303650 266.578308,189.073746 
z"/>
<path fill="#E7E4DF" opacity="1.000000" stroke="none" 
	d="
M184.049774,148.011932 
	C184.084991,143.926224 184.297958,139.831787 184.097900,135.757629 
	C183.944183,132.626968 185.211823,131.584946 188.587830,132.340683 
	C189.500900,133.145050 189.943573,133.635025 190.386261,134.125000 
	C190.451645,144.779434 190.501678,155.434021 190.597168,166.088181 
	C190.613525,167.912735 190.302444,170.014725 191.088181,171.482300 
	C191.909119,173.015579 193.898788,174.943954 195.329422,174.905579 
	C197.871033,174.837402 198.139313,172.710449 197.846909,170.092087 
	C197.414154,166.216721 197.238464,162.053268 198.203262,158.336975 
	C200.027710,151.309479 206.010162,147.514664 213.265442,147.753418 
	C219.206131,147.948914 223.438446,151.638382 223.834595,156.966919 
	C224.235641,162.361282 220.763504,167.119995 215.103317,167.991318 
	C211.591141,168.531982 207.927979,168.091644 203.918060,168.091644 
	C204.366470,171.637451 206.213882,174.005783 209.669479,175.181656 
	C217.865250,177.970520 227.959686,170.753571 227.982956,162.087662 
	C227.990555,159.256409 227.708099,156.387802 228.084900,153.607635 
	C228.317215,151.893570 229.170029,149.448975 230.425400,148.905365 
	C231.826614,148.298599 233.999237,149.473282 236.221237,149.956329 
	C238.745331,149.429245 241.944305,148.188492 245.129852,148.222046 
	C250.771484,148.281464 254.446579,151.770432 255.172562,157.430756 
	C255.677872,161.370483 255.254623,165.426025 255.706482,169.377182 
	C255.946625,171.477020 256.656647,174.150406 258.133423,175.248627 
	C259.033936,175.918274 261.821777,174.145248 263.708435,173.343552 
	C264.398773,173.050217 264.934845,172.393738 265.855377,171.648697 
	C267.356689,174.714249 269.964142,177.129211 265.872070,179.919846 
	C261.202484,183.104324 254.681778,183.013992 251.905045,178.865189 
	C250.341171,176.528580 249.667908,173.384277 249.300156,170.513306 
	C248.859207,167.070801 249.336380,163.521515 249.118759,160.037033 
	C248.787384,154.731262 243.835876,152.275238 240.118546,156.031113 
	C237.551727,158.624557 235.797836,162.675354 235.136475,166.337769 
	C234.297592,170.983337 234.933563,175.895233 234.933563,180.983002 
	C232.778091,180.983002 231.017517,180.983002 228.938797,180.983002 
	C228.751953,179.392303 228.565964,177.808716 228.291550,175.472275 
	C220.111481,182.767456 211.606003,184.643677 202.413940,178.438873 
	C194.147369,183.312302 192.121307,183.180115 186.156219,177.201218 
	C185.031006,178.072144 183.928146,179.040802 182.716019,179.844727 
	C176.259552,184.126907 167.271423,182.385788 163.482147,175.731583 
	C159.390701,168.546753 159.434906,160.999771 163.598969,153.848129 
	C167.058807,147.905914 173.014267,146.552582 182.630066,149.243652 
	C183.492065,149.740356 183.943008,149.959122 184.393967,150.177887 
	C184.279236,149.455902 184.164505,148.733917 184.049774,148.011932 
M183.654327,166.994675 
	C183.339066,164.385681 183.434891,161.637405 182.609558,159.201218 
	C181.449585,155.777283 178.558899,153.249252 174.986572,154.224289 
	C172.357574,154.941849 169.888306,157.328400 168.081238,159.564011 
	C167.010330,160.888885 167.126694,163.364304 167.120834,165.323608 
	C167.102982,171.291672 169.888016,175.180786 174.333282,175.747528 
	C178.689636,176.302948 181.607513,173.774216 183.654327,166.994675 
M216.932556,159.744293 
	C218.340424,156.346588 216.714417,154.660919 213.556015,154.070770 
	C209.387283,153.291855 205.920578,155.880325 204.714157,160.618179 
	C208.674271,162.072540 212.592865,163.375229 216.932556,159.744293 
z"/>
<path fill="#A9B003" opacity="1.000000" stroke="none" 
	d="
M232.890335,123.001274 
	C234.809601,124.646797 236.519821,127.306061 238.686295,127.752846 
	C245.962234,129.253326 253.396164,130.001389 260.781097,130.947952 
	C262.249512,131.136154 264.054169,130.410812 265.190369,131.037537 
	C266.541656,131.782898 267.338715,133.532990 268.375916,134.847748 
	C267.270447,135.559174 266.192596,136.841019 265.055359,136.896072 
	C249.118027,137.667465 234.284882,134.609344 221.672287,124.028015 
	C217.579865,120.594696 214.896957,121.262115 212.658997,125.806709 
	C210.932724,129.312210 207.917877,130.586395 204.347778,129.191620 
	C201.118088,127.929840 199.775879,125.105988 201.276657,121.860588 
	C202.886307,118.379745 205.898575,117.311111 209.628174,118.497185 
	C211.707993,119.158600 213.809799,119.750763 217.045746,120.715057 
	C214.396149,113.004852 208.253403,111.195267 203.237961,109.487816 
	C195.109955,106.720703 190.313751,101.620667 187.908218,93.855560 
	C187.013016,90.965851 185.536514,89.630753 182.551239,88.917793 
	C176.910339,87.570587 171.488297,85.264473 165.824753,84.071579 
	C162.773438,83.428894 159.230118,83.657967 156.221130,84.548767 
	C146.599884,87.397102 137.261765,88.059326 128.188156,82.921783 
	C127.217896,82.372414 126.382744,81.584450 124.740852,80.345871 
	C137.352295,74.911087 149.111969,73.429153 161.543060,80.428513 
	C162.503616,80.701469 162.914627,80.703560 163.325638,80.705643 
	C163.116760,80.270248 162.907898,79.834846 162.699020,79.399452 
	C158.892853,72.755875 154.215622,68.170486 145.762405,66.930344 
	C137.247849,65.681190 131.730255,58.639332 126.462814,51.148682 
	C129.079575,51.370228 131.738419,51.368443 134.305725,51.852306 
	C144.951889,53.858799 153.570831,58.536606 158.323654,69.080902 
	C161.035263,75.096710 165.653625,79.733017 172.403473,82.643982 
	C173.087509,82.409676 173.226868,82.028572 173.366226,81.647476 
	C171.128479,77.206039 168.827896,72.794945 166.666260,68.316765 
	C162.352142,59.379372 162.266891,50.472992 167.338318,40.489117 
	C172.483459,51.915646 177.726883,62.268700 175.498749,74.408409 
	C174.027710,82.423225 176.760239,85.877029 185.653549,85.764442 
	C185.867844,82.464142 186.086243,79.100525 186.304642,75.736916 
	C186.795654,75.485054 187.286667,75.233200 187.777679,74.981339 
	C191.663025,80.549759 195.548386,86.118179 199.712799,91.847321 
	C199.991882,92.008041 199.958389,91.973152 200.008026,92.335419 
	C204.186127,97.999611 201.869324,107.260414 210.951569,110.399117 
	C210.524872,106.506851 210.170334,103.272781 210.204987,100.030716 
	C211.372681,100.015327 212.151199,100.007927 213.037415,100.368301 
	C214.706055,109.617950 219.190720,116.689507 226.560242,121.826714 
	C227.767624,122.668365 229.586426,122.632881 231.417297,123.002327 
	C232.104752,123.001663 232.497543,123.001472 232.890335,123.001274 
M170.605942,67.687973 
	C170.002060,62.300949 169.398193,56.913925 168.794312,51.526901 
	C168.109741,51.648232 167.425171,51.769558 166.740585,51.890884 
	C167.832977,57.081718 168.925354,62.272552 170.605942,67.687973 
z"/>
<path fill="#F0EFEA" opacity="1.000000" stroke="none" 
	d="
M125.548920,148.818176 
	C126.204567,155.576874 126.281479,162.148651 126.943810,168.660889 
	C127.185638,171.038651 128.818939,173.274887 129.817444,175.575699 
	C131.293060,173.925537 133.938568,172.345749 134.042831,170.613083 
	C134.507034,162.898117 134.244293,155.139435 134.244293,146.082291 
	C135.977982,146.499832 138.315582,147.112167 140.676163,147.617050 
	C142.914215,148.095718 145.164444,148.725510 147.430115,148.827545 
	C154.083847,149.127213 156.749039,151.667496 156.900970,158.365158 
	C156.991638,162.362244 156.754364,166.376801 157.033417,170.357651 
	C157.818314,181.554718 164.269943,187.488022 175.370911,186.688507 
	C179.893890,186.362732 179.540619,189.204788 180.367203,191.730652 
	C166.584595,196.833969 153.177322,188.379410 151.099182,173.316177 
	C150.556290,169.380966 150.487213,165.315643 150.763138,161.349213 
	C151.082397,156.759628 149.855164,154.302063 144.787140,155.060043 
	C143.679459,155.225708 142.510956,154.984650 141.151184,154.920578 
	C141.151184,158.556152 141.341553,162.036240 141.094986,165.485092 
	C140.870743,168.621704 140.573868,171.855850 139.605728,174.817078 
	C136.812469,183.360916 129.642044,184.311203 122.220375,177.289124 
	C120.456909,178.491425 118.805832,179.945282 116.896454,180.859970 
	C109.972664,184.176880 101.084595,181.041992 98.786011,173.596161 
	C97.336395,168.900391 97.118073,163.381104 97.975731,158.518387 
	C99.328224,150.850037 105.339783,146.756165 113.012238,148.009125 
	C117.141457,148.683487 121.098709,149.123932 125.548920,148.818176 
M115.942757,155.351654 
	C109.285255,152.468811 104.795372,154.571838 103.612289,161.613159 
	C103.139084,164.429489 103.064079,167.898148 104.326630,170.256882 
	C105.602097,172.639740 108.696381,175.347748 111.108177,175.460129 
	C113.542778,175.573547 117.134857,173.252319 118.424500,170.979156 
	C121.323654,165.869049 120.716309,160.456940 115.942757,155.351654 
z"/>
<path fill="#E7E3DE" opacity="1.000000" stroke="none" 
	d="
M62.610676,181.599426 
	C51.242172,176.473511 46.424782,165.791519 49.071960,152.248566 
	C51.431068,140.179382 60.193287,132.450821 71.801918,132.199966 
	C81.500954,131.990402 88.382431,137.850128 88.337677,146.307663 
	C88.306290,152.238541 85.355186,156.203827 80.034325,158.945709 
	C78.065269,156.061234 76.838348,154.009811 79.901016,151.021561 
	C83.924698,147.095627 82.296097,141.333313 76.928947,139.537827 
	C74.796356,138.824402 72.323410,138.690918 70.057449,138.888901 
	C59.958488,139.771271 53.254456,150.512894 55.063152,162.647430 
	C56.516411,172.397369 64.225121,177.954407 73.649536,176.045944 
	C80.258621,174.707596 85.370201,169.027222 86.824905,161.331299 
	C87.132111,159.706055 87.268860,158.048584 87.531754,156.042709 
	C89.472290,156.042709 91.350174,156.042709 92.852493,156.042709 
	C92.852493,166.728516 93.566948,177.209702 92.622314,187.539154 
	C91.890587,195.540649 85.168083,199.501282 77.415466,198.325775 
	C71.509117,197.430191 70.850586,195.971207 73.916100,190.572861 
	C84.510521,194.271561 88.897346,189.141159 86.605789,175.160614 
	C79.956322,182.232727 72.089149,184.402695 62.610676,181.599426 
z"/>
<path fill="#E7E4DF" opacity="1.000000" stroke="none" 
	d="
M139.881714,118.866608 
	C137.687851,122.438408 135.841721,125.814163 133.554108,128.858139 
	C131.497620,131.594574 127.083710,131.363770 125.694176,128.763229 
	C125.538269,128.471451 125.443031,128.147369 125.318024,127.838936 
	C121.341507,118.027779 117.364769,108.216705 113.368607,98.357597 
	C117.565392,96.748985 120.260361,98.172638 121.984543,102.554855 
	C124.534988,109.037064 127.450089,115.375793 130.512817,122.477989 
	C135.873932,115.052849 138.687164,107.570679 136.144928,98.734924 
	C143.623062,93.076332 144.811432,102.717918 149.390823,103.873062 
	C156.253830,95.562653 163.195831,93.180695 169.805191,96.888268 
	C174.136459,99.317917 176.006866,104.256828 174.342804,108.870041 
	C172.114746,115.046715 166.120255,116.928856 153.991806,115.013184 
	C154.304932,118.806671 155.552643,121.924789 158.989929,123.504089 
	C165.586060,126.534760 170.802811,123.398651 175.525742,119.028770 
	C179.191620,124.608795 179.021851,125.439651 173.797928,128.439590 
	C161.210770,135.668015 148.008606,128.444016 147.336105,114.100250 
	C147.237000,111.986488 146.015244,109.925362 145.312897,107.839882 
	C144.837128,107.928802 144.361343,108.017723 143.885559,108.106644 
	C142.602798,111.579811 141.320023,115.052971 139.881714,118.866608 
M159.840088,109.614677 
	C161.475937,109.542892 163.357300,109.951447 164.683365,109.273628 
	C166.224152,108.486061 167.278061,106.745979 168.543274,105.419304 
	C167.025085,104.192673 165.629272,102.148224 163.964813,101.899200 
	C159.690262,101.259651 156.979599,103.772087 155.251572,107.979309 
	C156.654510,108.519402 157.845200,108.977783 159.840088,109.614677 
z"/>
<path fill="#E7E5DF" opacity="1.000000" stroke="none" 
	d="
M39.900581,85.997231 
	C44.129528,75.854576 59.084335,76.519371 66.001556,84.867630 
	C73.699509,94.158142 74.440659,113.197350 67.304764,122.970245 
	C58.134304,135.529526 38.536304,134.822342 30.320089,121.635689 
	C24.156326,111.743111 24.886530,96.830612 32.113895,87.711563 
	C32.885372,86.738167 34.346584,86.311424 35.777119,86.206009 
	C35.886040,89.229424 36.353664,91.967949 35.410561,94.075058 
	C31.771101,102.206451 31.164526,110.217850 35.804836,117.996155 
	C42.014484,128.405075 57.322437,128.245972 63.021091,117.588074 
	C67.865463,108.527893 67.109467,99.207596 61.938801,90.437767 
	C59.292850,85.950035 53.972420,83.580093 50.029980,85.289207 
	C48.256863,86.057884 47.327347,88.772499 46.015045,90.604156 
	C47.765316,91.758110 49.385597,93.394966 51.307251,93.912262 
	C52.827549,94.321518 54.717850,93.356262 56.663448,92.956238 
	C57.371674,94.857170 57.974480,96.475136 58.613190,98.189484 
	C53.372223,100.894081 48.590088,101.520164 43.943157,98.492363 
	C39.340641,95.493507 39.228954,90.819420 39.900581,85.997231 
z"/>
<path fill="#E6E3DD" opacity="1.000000" stroke="none" 
	d="
M117.607292,129.961395 
	C111.561073,132.229370 106.832573,130.617599 102.853874,126.158859 
	C101.886932,126.820038 101.106056,127.386421 100.294189,127.904236 
	C89.306786,134.912155 78.064095,130.439056 76.615540,117.604088 
	C75.484390,107.581429 76.206932,97.339752 76.306770,87.197380 
	C76.323914,85.456291 76.860626,83.222122 78.016190,82.100914 
	C80.019333,80.157341 82.646469,77.798019 85.100754,77.693199 
	C87.302231,77.599174 90.614418,79.807503 91.658592,81.891144 
	C93.214043,84.995018 93.795486,88.890404 93.748039,92.435013 
	C93.625076,101.619850 90.428276,110.007843 85.894730,117.922165 
	C83.845329,121.499847 84.921570,123.826584 88.861366,124.558556 
	C94.905907,125.681557 100.309486,120.970161 100.172264,114.869606 
	C100.049614,109.417168 100.146477,103.959785 100.146477,98.195938 
	C102.390312,98.195938 104.130905,98.195938 106.558807,98.195938 
	C106.558807,101.913177 106.546577,105.520546 106.563629,109.127777 
	C106.573074,111.124519 106.191299,113.259438 106.765862,115.086823 
	C107.751381,118.221230 108.631592,122.127602 110.942139,123.844879 
	C112.463890,124.975891 116.415520,122.837593 119.868462,122.024429 
	C121.485207,124.538536 123.070206,127.632721 117.607292,129.961395 
M85.359467,104.678665 
	C86.805695,97.773827 89.447960,90.840157 84.783737,84.038475 
	C80.332382,92.633331 83.130463,101.762756 82.066399,110.588188 
	C82.487442,110.673714 82.908493,110.759239 83.329536,110.844765 
	C83.935410,109.042168 84.541275,107.239563 85.359467,104.678665 
z"/>
<path fill="#5A4131" opacity="1.000000" stroke="none" 
	d="
M39.510544,85.998138 
	C39.228954,90.819420 39.340641,95.493507 43.943157,98.492363 
	C48.590088,101.520164 53.372223,100.894081 58.613190,98.189484 
	C57.974480,96.475136 57.371674,94.857170 56.663448,92.956238 
	C54.717850,93.356262 52.827549,94.321518 51.307251,93.912262 
	C49.385597,93.394966 47.765316,91.758110 46.015045,90.604156 
	C47.327347,88.772499 48.256863,86.057884 50.029980,85.289207 
	C53.972420,83.580093 59.292850,85.950035 61.938801,90.437767 
	C67.109467,99.207596 67.865463,108.527893 63.021091,117.588074 
	C57.322437,128.245972 42.014484,128.405075 35.804836,117.996155 
	C31.164526,110.217850 31.771101,102.206451 35.410561,94.075058 
	C36.353664,91.967949 35.886040,89.229424 36.033237,86.390465 
	C37.040211,85.999687 38.080360,85.999367 39.510544,85.998138 
z"/>
<path fill="#A9B003" opacity="1.000000" stroke="none" 
	d="
M212.929703,100.000519 
	C212.151199,100.007927 211.372681,100.015327 210.080505,99.666122 
	C210.352951,93.770615 207.260834,91.997948 202.407318,91.945168 
	C201.591217,91.936287 200.774704,91.962921 199.958389,91.973145 
	C199.958389,91.973152 199.991882,92.008041 200.005722,92.027863 
	C200.082779,90.928223 200.145981,89.808769 200.238464,88.170967 
	C203.292419,88.328178 206.296082,88.482796 209.633453,88.654602 
	C210.203140,84.202011 209.647949,80.726532 205.190186,78.835663 
	C203.859940,78.271416 202.696304,77.314346 201.552841,76.104683 
	C202.075409,74.161697 202.411499,72.618240 202.950714,71.149353 
	C203.601532,69.376358 204.424576,67.666588 205.173080,65.929451 
	C207.120483,70.354103 209.067871,74.778748 211.093979,79.382256 
	C214.785172,75.049637 215.013077,69.773842 213.856598,63.673885 
	C214.538879,63.123302 215.009598,63.064228 215.480331,63.005150 
	C215.725266,67.073067 221.446335,70.610802 215.661499,75.262497 
	C216.174286,75.621117 216.687073,75.979744 217.199860,76.338364 
	C222.639511,73.496536 227.832977,69.900291 233.587234,68.022675 
	C239.472931,66.102180 245.908401,65.866638 252.798676,65.996765 
	C251.977570,67.017632 251.304138,68.219109 250.311768,69.030502 
	C243.008026,75.002396 234.805527,78.529655 225.162430,78.063820 
	C214.530731,77.550224 213.768753,78.275085 213.073303,90.031937 
	C213.018097,93.923393 212.973907,96.961952 212.929703,100.000519 
M207.310928,76.177124 
	C207.125687,76.044617 206.940445,75.912109 206.755188,75.779610 
	C206.872635,75.974281 206.990097,76.168945 207.310928,76.177124 
z"/>
<path fill="#A8AF03" opacity="1.000000" stroke="none" 
	d="
M232.871429,122.631119 
	C232.497543,123.001472 232.104752,123.001663 231.276184,122.656181 
	C228.810028,116.043114 226.027252,109.896118 224.998749,103.468414 
	C224.241272,98.734505 222.624359,96.234924 218.108322,95.393356 
	C215.148727,94.841835 213.134064,93.510651 214.023743,90.008942 
	C217.567856,90.762390 221.615280,92.896461 224.501205,91.844406 
	C226.929581,90.959152 228.006805,86.367508 230.486450,81.999954 
	C233.606216,94.188744 237.615128,104.676483 233.372665,116.101013 
	C232.681564,117.962074 233.000473,120.198189 232.871429,122.631119 
z"/>
<path fill="#5B422B" opacity="1.000000" stroke="none" 
	d="
M213.827271,90.001190 
	C213.134064,93.510651 215.148727,94.841835 218.108322,95.393356 
	C222.624359,96.234924 224.241272,98.734505 224.998749,103.468414 
	C226.027252,109.896118 228.810028,116.043114 230.981537,122.656647 
	C229.586426,122.632881 227.767624,122.668365 226.560242,121.826714 
	C219.190720,116.689507 214.706055,109.617950 213.037415,100.368301 
	C212.973907,96.961952 213.018097,93.923393 213.149963,90.436028 
	C213.237610,89.987228 213.630798,89.993446 213.827271,90.001190 
z"/>
<path fill="#A9B003" opacity="1.000000" stroke="none" 
	d="
M252.120331,50.312859 
	C251.246490,51.095173 250.372650,51.877487 249.092270,52.482262 
	C247.896103,49.724411 246.703461,48.813797 244.072632,50.589069 
	C242.509506,51.643867 240.504471,52.159256 238.623947,52.602688 
	C235.357849,53.372845 232.604034,58.353451 234.069916,61.138969 
	C228.301559,61.511433 223.270142,63.432835 219.865631,68.691032 
	C219.364578,67.798164 219.029617,67.354561 219.091476,67.289742 
	C226.097458,59.949818 231.269684,50.633286 241.080658,46.315544 
	C243.917603,45.067024 247.093842,44.589470 250.548981,44.187798 
	C251.362396,46.515701 251.741364,48.414280 252.120331,50.312859 
z"/>
<path fill="#A9B003" opacity="1.000000" stroke="none" 
	d="
M205.036362,65.618469 
	C204.424576,67.666588 203.601532,69.376358 202.950714,71.149353 
	C202.411499,72.618240 202.075409,74.161697 201.372070,75.816055 
	C196.692810,69.622406 192.290802,63.284824 187.888809,56.947243 
	C188.357376,56.470402 188.825958,55.993565 189.294525,55.516724 
	C195.434219,57.107708 200.787659,60.100735 205.036362,65.618469 
z"/>
<path fill="#A9B003" opacity="1.000000" stroke="none" 
	d="
M215.712860,62.688339 
	C215.009598,63.064228 214.538879,63.123302 213.714569,63.252045 
	C211.812439,62.884125 209.368835,62.886284 208.894516,61.920883 
	C207.775177,59.642693 206.583191,56.520496 207.359100,54.474968 
	C207.957352,52.897781 212.295929,51.063766 213.559006,51.792393 
	C215.648819,52.997936 216.907227,56.059086 217.867371,58.584915 
	C218.205734,59.474968 216.641144,61.088387 215.712860,62.688339 
z"/>
<path fill="#AAB103" opacity="1.000000" stroke="none" 
	d="
M242.768158,105.239578 
	C245.579559,109.254059 248.159637,113.000076 250.812134,116.851227 
	C247.607925,119.384247 245.649002,119.838921 243.795120,116.506752 
	C242.037903,113.348312 239.618057,110.552567 237.928177,107.364838 
	C236.875092,105.378387 236.635986,102.960449 236.031586,100.736153 
	C236.439453,100.529716 236.847336,100.323280 237.255203,100.116837 
	C239.015747,101.734932 240.776291,103.353027 242.768158,105.239578 
z"/>
<path fill="#A9B003" opacity="1.000000" stroke="none" 
	d="
M234.445221,61.114967 
	C232.604034,58.353451 235.357849,53.372845 238.623947,52.602688 
	C240.504471,52.159256 242.509506,51.643867 244.072632,50.589069 
	C246.703461,48.813797 247.896103,49.724411 248.819824,52.595184 
	C244.242813,55.620747 239.531677,58.355858 234.445221,61.114967 
z"/>
<path fill="#A0A308" opacity="1.000000" stroke="none" 
	d="
M253.704361,213.426239 
	C252.577774,212.467224 251.766312,211.651993 250.675568,210.556198 
	C249.918625,211.639175 249.201645,212.664948 247.718170,214.787384 
	C247.718170,210.551132 247.718170,207.640198 247.718170,203.761063 
	C249.741165,205.357208 250.963394,206.321533 252.343948,207.410797 
	C252.984818,206.439575 253.619232,205.478134 254.920914,203.505463 
	C255.663681,207.762955 257.317596,210.826447 253.704361,213.426239 
z"/>
<path fill="#A2A608" opacity="1.000000" stroke="none" 
	d="
M229.720901,205.026855 
	C233.405106,207.503799 231.542450,210.553452 230.849777,214.783829 
	C229.534988,212.594070 228.843369,211.442169 227.842499,209.775253 
	C226.621170,211.336243 225.714478,212.495087 223.985229,214.705246 
	C223.985229,210.702484 223.985229,207.858887 223.985229,205.020645 
	C226.010208,203.952789 227.373306,211.953598 229.720901,205.026855 
z"/>
<path fill="#A7AD04" opacity="1.000000" stroke="none" 
	d="
M242.443115,213.123901 
	C236.595642,214.208481 233.992844,211.355865 236.358994,206.306503 
	C237.002701,204.932831 240.119171,204.717911 242.100769,203.971176 
	C242.293106,204.505371 242.485443,205.039581 242.677780,205.573776 
	C241.507614,206.136719 240.337448,206.699661 238.832138,207.423859 
	C240.132080,207.891907 241.135452,208.253174 242.881729,208.881927 
	C241.370010,209.733749 240.468521,210.241714 239.400848,210.843307 
	C240.517700,211.525299 241.555923,212.159302 242.443115,213.123901 
z"/>
<path fill="#A3A707" opacity="1.000000" stroke="none" 
	d="
M150.505920,210.196014 
	C151.558289,208.018600 152.462906,206.156296 153.367523,204.294006 
	C153.855682,204.244385 154.343857,204.194763 154.832031,204.145142 
	C156.164490,207.086853 157.496948,210.028564 158.760834,212.818878 
	C155.595642,212.818878 152.971939,212.818878 149.939377,212.818878 
	C149.998825,212.491226 150.178497,211.501175 150.505920,210.196014 
z"/>
<path fill="#A7AD04" opacity="1.000000" stroke="none" 
	d="
M166.289429,210.341980 
	C165.338348,211.208023 164.636597,212.258682 163.373169,214.150238 
	C163.373169,210.572067 163.373169,207.824890 163.373169,203.968811 
	C165.271439,205.598602 166.634567,206.768921 168.356659,208.247452 
	C168.749802,207.045395 169.101730,205.969360 169.453659,204.893341 
	C169.769806,204.920074 170.085938,204.946823 170.402069,204.973557 
	C170.402069,207.754410 170.402069,210.535248 170.402069,214.575027 
	C168.639832,212.728348 167.589310,211.627472 166.289429,210.341980 
z"/>
<path fill="#A1A508" opacity="1.000000" stroke="none" 
	d="
M217.270874,211.246658 
	C218.873428,213.096924 218.758209,213.875519 217.382004,213.649811 
	C215.348694,213.316360 212.701859,212.556244 211.757446,211.065079 
	C210.997437,209.865082 211.756714,206.574387 212.969650,205.560471 
	C214.266129,204.476715 216.884567,204.974396 218.925964,204.781754 
	C218.894699,205.201141 218.863449,205.620529 218.832184,206.039917 
	C217.211761,206.987686 215.591324,207.935455 213.970886,208.883209 
	C214.952148,209.685074 215.933411,210.486938 217.270874,211.246658 
z"/>
<path fill="#A3A707" opacity="1.000000" stroke="none" 
	d="
M123.941841,204.563690 
	C125.747162,207.410950 127.215919,210.217346 128.570282,212.805176 
	C125.207306,212.805176 122.556213,212.805176 118.937195,212.805176 
	C120.438980,210.140625 122.022125,207.331726 123.941841,204.563690 
z"/>
<path fill="#A4AA05" opacity="1.000000" stroke="none" 
	d="
M188.038605,207.195419 
	C188.309921,209.341965 188.789520,211.246994 189.518387,214.142212 
	C187.763168,212.988770 186.484833,212.148712 185.078629,211.224625 
	C184.402725,211.971329 183.717606,212.728256 182.378510,214.207657 
	C182.378510,210.626587 182.378510,207.959457 182.378510,205.647980 
	C184.502502,205.426834 186.657944,205.202393 189.171906,204.940643 
	C188.900421,205.531494 188.573639,206.242706 188.038605,207.195419 
z"/>
<path fill="#E3E0DA" opacity="1.000000" stroke="none" 
	d="
M106.991486,89.836975 
	C105.254608,91.037582 103.618088,92.084435 101.840469,92.455627 
	C101.452057,92.536736 99.945251,90.136322 100.073959,89.006371 
	C100.201172,87.889473 102.232491,85.913597 102.586433,86.082222 
	C104.231331,86.865814 105.583946,88.262970 106.991486,89.836975 
z"/>
<path fill="#9C9E0A" opacity="1.000000" stroke="none" 
	d="
M201.858795,204.417511 
	C203.946411,204.341309 205.678802,204.341309 207.645203,204.341309 
	C206.407166,207.865509 205.418701,210.679291 203.918137,214.950806 
	C202.890396,210.499786 202.196976,207.496765 201.858795,204.417511 
z"/>
<path fill="#A3A707" opacity="1.000000" stroke="none" 
	d="
M134.998169,209.780197 
	C136.277817,210.936630 137.465958,211.708984 140.098816,213.420502 
	C136.846024,213.420502 133.510056,213.836792 133.373230,213.351349 
	C132.618622,210.674255 132.644989,207.777039 132.403549,204.955307 
	C133.074554,204.908951 133.745560,204.862610 134.416580,204.816269 
	C134.579941,206.342880 134.743317,207.869507 134.998169,209.780197 
z"/>
<path fill="#9C9E0A" opacity="1.000000" stroke="none" 
	d="
M114.925858,207.250671 
	C114.307373,209.401703 113.988380,211.325577 113.457153,214.529510 
	C111.964058,210.677200 110.906097,207.947556 109.540260,204.423584 
	C111.466492,204.423584 113.352158,204.423584 115.237823,204.423584 
	C115.233665,205.290222 115.229507,206.156860 114.925858,207.250671 
z"/>
<path fill="#8C8712" opacity="1.000000" stroke="none" 
	d="
M266.232849,189.076172 
	C264.756866,189.303650 263.568756,189.846634 262.513580,189.655579 
	C261.631989,189.495956 260.573486,188.617752 260.223755,187.791092 
	C259.975647,187.204514 260.787842,185.452682 261.108978,185.457306 
	C263.342987,185.489456 265.572327,185.844894 267.803162,186.096664 
	C267.394867,187.089020 266.986603,188.081390 266.232849,189.076172 
z"/>
<path fill="#A9B003" opacity="1.000000" stroke="none" 
	d="
M252.410553,50.183830 
	C251.741364,48.414280 251.362396,46.515701 250.966370,44.198914 
	C251.760986,43.608616 252.572678,43.436535 253.777802,43.641155 
	C254.434845,45.306042 254.698441,46.594231 254.962036,47.882416 
	C254.208282,48.606544 253.454529,49.330669 252.410553,50.183830 
z"/>
<path fill="#A9B003" opacity="1.000000" stroke="none" 
	d="
M255.246979,47.741257 
	C254.698441,46.594231 254.434845,45.306042 254.089294,43.700462 
	C255.591248,43.383064 257.175171,43.383064 260.279358,43.383064 
	C258.036987,45.374912 256.784454,46.487507 255.246979,47.741257 
z"/>
<path fill="#C8BFB7" opacity="1.000000" stroke="none" 
	d="
M183.789307,148.056152 
	C184.164505,148.733917 184.279236,149.455902 184.393967,150.177887 
	C183.943008,149.959122 183.492065,149.740356 183.017090,149.237396 
	C183.171661,148.668915 183.350250,148.384628 183.789307,148.056152 
z"/>
<path fill="#C8BFB7" opacity="1.000000" stroke="none" 
	d="
M190.491699,133.833801 
	C189.943573,133.635025 189.500900,133.145050 189.006958,132.401184 
	C189.502869,132.612396 190.050003,133.077515 190.491699,133.833801 
z"/>
<path fill="#5B4232" opacity="1.000000" stroke="none" 
	d="
M183.585953,167.391388 
	C181.607513,173.774216 178.689636,176.302948 174.333282,175.747528 
	C169.888016,175.180786 167.102982,171.291672 167.120834,165.323608 
	C167.126694,163.364304 167.010330,160.888885 168.081238,159.564011 
	C169.888306,157.328400 172.357574,154.941849 174.986572,154.224289 
	C178.558899,153.249252 181.449585,155.777283 182.609558,159.201218 
	C183.434891,161.637405 183.339066,164.385681 183.585953,167.391388 
z"/>
<path fill="#5E4536" opacity="1.000000" stroke="none" 
	d="
M216.700195,160.046707 
	C212.592865,163.375229 208.674271,162.072540 204.714157,160.618179 
	C205.920578,155.880325 209.387283,153.291855 213.556015,154.070770 
	C216.714417,154.660919 218.340424,156.346588 216.700195,160.046707 
z"/>
<path fill="#583E2D" opacity="1.000000" stroke="none" 
	d="
M200.008026,92.335411 
	C200.774704,91.962921 201.591217,91.936287 202.407318,91.945168 
	C207.260834,91.997948 210.352951,93.770615 209.691315,99.674118 
	C210.170334,103.272781 210.524872,106.506851 210.951569,110.399117 
	C201.869324,107.260414 204.186127,97.999611 200.008026,92.335411 
z"/>
<path fill="#6F5F20" opacity="1.000000" stroke="none" 
	d="
M170.311829,67.575684 
	C168.925354,62.272552 167.832977,57.081718 166.740585,51.890884 
	C167.425171,51.769558 168.109741,51.648232 168.794312,51.526901 
	C169.398193,56.913925 170.002060,62.300949 170.311829,67.575684 
z"/>
<path fill="#583E2D" opacity="1.000000" stroke="none" 
	d="
M162.432953,79.636230 
	C162.907898,79.834846 163.116760,80.270248 163.325638,80.705643 
	C162.914627,80.703560 162.503616,80.701469 161.880676,80.540779 
	C161.834778,80.212456 162.000824,80.042732 162.432953,79.636230 
z"/>
<path fill="#583E2D" opacity="1.000000" stroke="none" 
	d="
M173.157623,81.877167 
	C173.226868,82.028572 173.087509,82.409676 172.756317,82.692352 
	C172.692657,82.431587 172.820831,82.269226 173.157623,81.877167 
z"/>
<path fill="#5B4232" opacity="1.000000" stroke="none" 
	d="
M116.241043,155.602585 
	C120.716309,160.456940 121.323654,165.869049 118.424500,170.979156 
	C117.134857,173.252319 113.542778,175.573547 111.108177,175.460129 
	C108.696381,175.347748 105.602097,172.639740 104.326630,170.256882 
	C103.064079,167.898148 103.139084,164.429489 103.612289,161.613159 
	C104.795372,154.571838 109.285255,152.468811 116.241043,155.602585 
z"/>
<path fill="#604838" opacity="1.000000" stroke="none" 
	d="
M159.437988,109.525421 
	C157.845200,108.977783 156.654510,108.519402 155.251572,107.979309 
	C156.979599,103.772087 159.690262,101.259651 163.964813,101.899200 
	C165.629272,102.148224 167.025085,104.192673 168.543274,105.419304 
	C167.278061,106.745979 166.224152,108.486061 164.683365,109.273628 
	C163.357300,109.951447 161.475937,109.542892 159.437988,109.525421 
z"/>
<path fill="#624A3A" opacity="1.000000" stroke="none" 
	d="
M85.253311,105.057816 
	C84.541275,107.239563 83.935410,109.042168 83.329536,110.844765 
	C82.908493,110.759239 82.487442,110.673714 82.066399,110.588188 
	C83.130463,101.762756 80.332382,92.633331 84.783737,84.038475 
	C89.447960,90.840157 86.805695,97.773827 85.253311,105.057816 
z"/>
<path fill="#A9B003" opacity="1.000000" stroke="none" 
	d="
M207.209229,76.270370 
	C206.990097,76.168945 206.872635,75.974281 206.755188,75.779610 
	C206.940445,75.912109 207.125687,76.044617 207.209229,76.270370 
z"/>
</svg>