<svg version="1.1" id="Layer_1" xmlns="http://www.w3.org/2000/svg" xmlns:xlink="http://www.w3.org/1999/xlink" x="0px" y="0px"
	 width="100%" viewBox="0 0 815 771" enable-background="new 0 0 815 771" xml:space="preserve">
<path fill="#FE8F60" opacity="1.000000" stroke="none" 
	d="
M530.000000,772.000000 
	C353.333344,772.000000 177.166672,772.000000 1.000000,772.000000 
	C1.000000,515.000000 1.000000,258.000000 1.000000,1.000000 
	C272.666656,1.000000 544.333313,1.000000 816.000000,1.000000 
	C816.000000,258.000000 816.000000,515.000000 816.000000,772.000000 
	C720.833313,772.000000 625.666687,772.000000 530.000000,772.000000 
M414.767059,323.335938 
	C417.664795,319.902740 420.622162,316.516876 423.413086,312.998962 
	C424.016022,312.239044 424.019958,311.003906 424.299835,309.987671 
	C423.120087,309.883453 421.919739,309.602783 420.767914,309.737549 
	C420.009918,309.826233 419.323181,310.515839 418.602539,310.932892 
	C380.145538,333.189697 361.228333,378.000336 372.288818,420.640594 
	C383.276733,463.001129 423.054932,494.548767 466.771301,494.927826 
	C505.920624,495.267303 545.075623,495.107666 584.227295,494.953735 
	C603.741699,494.877014 621.922607,482.398621 627.487183,463.751404 
	C630.227417,454.568756 629.765442,444.414673 630.559631,434.684418 
	C630.677490,433.240295 629.729797,431.709137 629.275085,430.218231 
	C627.969360,431.010132 626.382080,431.547516 625.401062,432.632904 
	C614.315002,444.898529 600.542603,451.695953 584.043823,451.825653 
	C549.558777,452.096802 515.054321,452.550537 480.587372,451.712585 
	C447.930756,450.918610 423.026978,435.426941 408.220520,406.344879 
	C393.866089,378.150635 396.873047,350.250641 414.767059,323.335938 
M577.954041,344.483887 
	C616.895386,277.035980 569.503906,195.073517 491.504639,195.003357 
	C453.514130,194.969193 415.523163,194.889587 377.533203,195.038040 
	C352.422180,195.136185 332.051025,214.776779 330.746338,239.847000 
	C330.486816,244.833435 330.523773,249.844376 330.662567,254.837387 
	C330.708923,256.504333 331.499359,258.150574 331.949646,259.806274 
	C333.392670,258.899353 335.136780,258.262909 336.232117,257.043640 
	C347.194550,244.840942 360.932159,238.318817 377.207184,238.186371 
	C411.862274,237.904358 446.548584,237.279556 481.171326,238.384933 
	C515.903259,239.493805 541.727478,256.560944 555.270386,288.686371 
	C568.728333,320.610107 562.076233,349.999725 538.979614,375.740540 
	C537.947815,376.890472 537.702576,378.746277 537.091003,380.273285 
	C538.737061,380.008484 540.629395,380.180176 541.991394,379.411865 
	C556.799866,371.058838 568.614746,359.546539 577.954041,344.483887 
M330.591858,305.505493 
	C330.591797,312.669525 330.590210,319.833527 330.592102,326.997559 
	C330.593658,332.828705 330.515747,338.662140 330.676056,344.488983 
	C330.707001,345.612671 331.678223,346.710510 332.215698,347.820251 
	C333.224243,347.139679 334.358551,346.584534 335.201630,345.738983 
	C335.879639,345.058990 336.172363,344.007568 336.691895,343.154999 
	C356.342590,310.903961 384.787689,292.370575 422.614899,290.012177 
	C442.199585,288.791138 461.942871,288.958588 481.564911,289.741821 
	C518.796082,291.227936 544.030518,325.696045 534.022705,360.285767 
	C533.413635,362.390900 533.799011,364.783783 533.721619,367.042755 
	C535.557739,365.610748 537.870789,364.515930 539.157776,362.695648 
	C555.759705,339.214569 558.870361,313.873627 546.277222,288.076721 
	C533.086670,261.055908 510.158783,247.054764 480.160828,246.451065 
	C446.020660,245.764008 411.853882,246.065430 377.702881,246.385117 
	C359.641907,246.554184 345.904022,255.021423 336.643738,270.552948 
	C330.363037,281.086945 330.315521,292.780487 330.591858,305.505493 
M520.500244,400.472778 
	C507.838257,400.472321 495.176239,400.484253 482.514282,400.468353 
	C465.445587,400.446930 450.790924,394.461914 439.452545,381.696808 
	C425.502075,365.990936 421.956940,347.756714 427.874481,327.611633 
	C428.280731,326.228699 427.860962,324.603119 427.825317,323.090363 
	C426.369446,323.868927 424.388489,324.283234 423.550781,325.490692 
	C420.333832,330.127533 416.892975,334.752014 414.587830,339.856262 
	C392.219543,389.386200 427.451172,443.374878 482.326813,443.675385 
	C515.647400,443.857880 548.969910,443.772095 582.291199,443.690277 
	C609.823242,443.622681 630.415222,423.180084 630.622681,395.747955 
	C630.744873,379.587952 630.699646,363.425812 630.568848,347.265930 
	C630.554871,345.545837 629.459290,343.834503 628.865417,342.119141 
	C627.659424,343.316254 626.117615,344.319580 625.298157,345.739716 
	C614.435486,364.564728 599.454956,378.980225 580.108032,388.987579 
	C561.644592,398.537933 541.925598,401.187012 520.500244,400.472778 
M317.281494,315.500549 
	C317.280853,308.341522 317.316742,301.182251 317.273010,294.023468 
	C317.112823,267.807983 297.533234,246.942520 271.288513,246.447556 
	C239.500519,245.848038 207.692673,246.330292 175.893677,246.245590 
	C172.393585,246.236282 171.255112,247.577805 171.299423,250.985962 
	C171.442230,261.972321 171.549011,272.966980 171.256058,283.947418 
	C171.136017,288.446594 172.754227,289.665680 177.016449,289.601471 
	C190.498932,289.398346 204.010895,289.029633 217.463943,289.691132 
	C227.530609,290.186127 237.822601,291.075653 247.493423,293.705078 
	C275.803192,301.402466 297.037567,318.702972 311.839417,344.004395 
	C312.731842,345.529877 314.453247,346.570374 315.788910,347.836548 
	C316.286438,346.048615 317.182617,344.267609 317.213837,342.471558 
	C317.364136,333.816803 317.281311,325.157959 317.281494,315.500549 
M217.500000,238.071304 
	C232.652802,238.071304 247.816910,238.441513 262.955597,237.979385 
	C282.717102,237.376160 299.698090,242.884583 312.824860,258.287689 
	C313.487183,259.064880 314.718170,259.357452 315.684418,259.875702 
	C316.203735,258.784821 317.155670,257.699982 317.170990,256.602020 
	C317.259247,250.278229 317.533234,243.916428 316.994904,237.631699 
	C314.993652,214.268875 295.099426,195.345917 271.726532,195.100800 
	C239.759308,194.765564 207.785904,195.052628 175.815674,194.933594 
	C172.185730,194.920090 171.273788,196.335388 171.312576,199.660095 
	C171.444702,210.981537 171.464279,222.306839 171.305801,233.627579 
	C171.255798,237.200516 172.659058,238.164749 176.037674,238.128967 
	C189.523819,237.986145 203.012344,238.070831 217.500000,238.071304 
M281.637970,363.136383 
	C283.418488,374.767517 286.454346,386.368469 286.734955,398.035675 
	C287.463409,428.321991 286.971283,458.637482 286.988556,488.941315 
	C286.991638,494.385498 287.935364,495.036316 293.173157,493.446259 
	C307.377319,489.134216 317.171143,476.022003 317.249420,460.763733 
	C317.363037,438.619202 317.500916,416.470978 317.233246,394.329102 
	C316.671814,347.885223 282.043884,307.373077 236.151672,299.294006 
	C234.338898,298.974884 232.299789,299.941589 230.366135,300.309174 
	C231.673340,301.625977 232.780960,303.268280 234.317749,304.210663 
	C256.890533,318.052338 272.721710,337.313110 281.637970,363.136383 
M561.276367,211.188019 
	C610.968750,252.442642 613.680786,326.354370 566.865234,370.924164 
	C560.533813,376.951813 552.824158,381.524994 545.823425,386.864380 
	C544.905579,387.564392 544.411499,388.820068 543.721191,389.818390 
	C544.858643,390.236328 545.968262,390.834625 547.142212,391.015350 
	C548.088745,391.161072 549.121948,390.849701 550.101257,390.660828 
	C616.964539,377.764130 651.258118,304.054962 617.584229,244.859833 
	C602.291443,217.976624 578.747559,202.038589 548.333679,196.384750 
	C546.934021,196.124557 545.341919,196.899292 543.839478,197.192032 
	C544.817078,198.487076 545.562866,200.095566 546.813904,201.020935 
	C551.359070,204.382812 556.073486,207.515945 561.276367,211.188019 
M346.785675,342.262360 
	C307.865753,402.565155 342.877502,480.255951 411.014069,493.196808 
	C413.060669,493.585510 415.303162,492.942566 417.454346,492.780609 
	C416.016663,491.227448 414.835449,489.262848 413.102844,488.182861 
	C386.573944,471.646973 369.439514,448.315094 363.210632,417.651367 
	C353.984497,372.233032 374.036469,328.088196 414.042877,304.004089 
	C415.471558,303.144012 416.300781,301.288177 417.409393,299.896423 
	C415.711121,299.653198 414.018188,299.349121 412.311768,299.198364 
	C411.678070,299.142395 411.013489,299.449951 410.361572,299.584656 
	C383.639587,305.107483 362.657379,319.241486 346.785675,342.262360 
M248.460114,383.499817 
	C248.460327,418.797760 248.526718,454.095978 248.375137,489.393280 
	C248.356644,493.698303 249.463348,495.349915 253.968063,495.103088 
	C260.442139,494.748291 266.960266,494.791748 273.439911,495.091492 
	C277.612762,495.284576 278.873352,493.833038 278.855194,489.700134 
	C278.716003,458.065796 279.347137,426.417633 278.627563,394.799042 
	C277.784302,357.745941 260.439484,329.818481 228.840240,310.696930 
	C227.447266,309.853973 225.357971,310.161713 223.593018,309.933441 
	C224.320816,311.447296 224.884949,313.069550 225.803589,314.457062 
	C230.924057,322.190948 236.843613,329.491577 241.148544,337.648285 
	C248.522720,351.620453 248.885818,367.074097 248.460114,383.499817 
M369.083282,571.503723 
	C370.510040,563.837524 370.387390,556.263367 367.578888,548.890320 
	C363.714722,538.746033 354.195282,532.028076 343.914886,533.415161 
	C338.418427,534.156738 333.197205,536.938538 327.822021,538.809937 
	C327.672485,538.106750 327.310364,536.403748 326.978790,534.844360 
	C321.213898,534.844360 315.802490,534.844360 310.413391,534.844360 
	C310.413391,559.744141 310.413391,584.254333 310.413391,608.704224 
	C316.276855,608.704224 321.688538,608.704224 327.801758,608.704224 
	C327.801758,600.759033 327.801758,593.104431 327.801758,585.199524 
	C330.957642,587.142273 333.319366,589.036011 336.001709,590.173889 
	C350.131683,596.168030 364.070618,588.530334 369.083282,571.503723 
M222.734970,362.500275 
	C222.734985,402.780426 222.735001,443.060577 222.735016,483.340729 
	C222.735016,495.054474 222.741577,494.811920 234.232895,495.121185 
	C239.201431,495.254913 240.374649,493.500732 240.351852,488.826599 
	C240.186249,454.872253 240.280853,420.916687 240.249084,386.961578 
	C240.242081,379.474548 240.401215,371.963867 239.884369,364.505646 
	C238.853348,349.627411 233.328964,336.409607 223.902466,324.870972 
	C223.106445,323.896606 221.527573,323.561798 220.312393,322.929901 
	C220.052811,324.092529 219.264862,325.452423 219.614014,326.387817 
	C223.882980,337.824768 222.500992,349.730286 222.734970,362.500275 
M551.275696,586.836243 
	C556.076050,583.463745 559.783569,579.313354 561.611450,573.057251 
	C554.157471,573.484070 547.754089,572.295532 541.079651,576.722412 
	C532.085754,582.687683 521.113342,576.937744 520.589111,566.925781 
	C534.347412,566.925781 548.089050,566.925781 561.751648,566.925781 
	C564.552124,546.653809 550.021484,531.547729 529.645630,532.995361 
	C515.261169,534.017395 504.484070,544.045593 502.756866,558.015747 
	C500.824127,573.648804 508.280792,586.205627 522.329346,590.423157 
	C532.147766,593.370789 541.726562,592.777100 551.275696,586.836243 
M433.501068,567.008240 
	C441.284882,567.008240 449.068695,567.008240 456.761200,567.008240 
	C459.550171,550.963257 449.225250,536.023499 433.849823,533.261902 
	C416.816864,530.202576 401.222900,540.096619 398.164734,555.903259 
	C394.724884,573.682739 404.195923,588.017334 421.663116,591.468567 
	C437.268463,594.551941 453.547058,586.097839 456.301697,573.059326 
	C454.424988,573.059326 452.642548,573.075989 450.860504,573.056213 
	C445.940521,573.001526 441.540222,573.327332 436.862762,576.298584 
	C433.360168,578.523560 427.597839,578.268066 423.091370,577.549866 
	C418.009369,576.739929 415.653809,572.266113 416.052917,567.288940 
	C416.374939,567.210388 416.696625,567.065247 417.019104,567.063416 
	C422.179871,567.034241 427.340729,567.023315 433.501068,567.008240 
M585.943359,560.015564 
	C585.996765,559.351807 586.023682,558.684753 586.107605,558.024841 
	C587.167725,549.690002 590.440552,546.371948 597.165161,546.802307 
	C602.866272,547.167053 604.992798,550.348389 605.058899,558.927429 
	C605.125671,567.584473 605.058472,576.242371 605.091248,584.899780 
	C605.098450,586.810303 605.279419,588.720154 605.370911,590.451172 
	C611.456543,590.451172 616.849976,590.451172 622.675171,590.451172 
	C622.675171,580.083496 622.840698,570.115662 622.606689,560.157227 
	C622.486267,555.032898 622.040771,549.848083 621.038940,544.830994 
	C619.948853,539.371765 616.219971,535.706604 610.836304,534.213928 
	C603.216370,532.101379 596.000488,533.049133 589.509033,537.892517 
	C588.549988,538.608032 587.495911,539.195984 586.270996,539.980530 
	C585.981567,537.951538 585.774170,536.497498 585.539185,534.849854 
	C579.818420,534.849854 574.280518,534.849854 568.689392,534.849854 
	C568.689392,553.650940 568.689392,572.045044 568.689392,590.548157 
	C574.464905,590.548157 579.869812,590.548157 585.926636,590.548157 
	C585.926636,580.475952 585.926636,570.702637 585.943359,560.015564 
M211.339462,519.045654 
	C207.557755,519.045654 203.776047,519.045654 199.820099,519.045654 
	C199.820099,535.005249 199.528656,550.449402 199.966797,565.872803 
	C200.136612,571.850220 204.005142,574.762268 209.898315,576.103149 
	C211.458435,576.458069 213.389114,577.781860 214.025208,579.174438 
	C217.854370,587.557373 225.916748,591.865417 235.980713,590.284119 
	C235.980713,585.765869 235.980713,581.193970 235.980713,576.020325 
	C229.648422,576.020325 223.586304,576.020325 217.301941,576.020325 
	C217.301941,566.045654 217.301941,556.673706 217.301941,546.726685 
	C223.060593,546.726685 228.454239,546.726685 233.962738,546.726685 
	C233.962738,542.407227 233.962738,538.671509 233.962738,534.442993 
	C229.657974,534.442993 225.682266,534.239868 221.737579,534.502563 
	C218.104538,534.744446 216.517868,533.643982 216.859558,529.776672 
	C217.160553,526.370117 216.922501,522.915894 216.922501,519.323853 
	C214.886536,519.201782 213.586441,519.123840 211.339462,519.045654 
M463.444336,553.477173 
	C463.517334,557.141113 463.348053,560.829529 463.714600,564.463867 
	C464.438568,571.641113 467.442474,574.539185 474.530365,576.165710 
	C475.914032,576.483215 477.511200,577.950928 478.105072,579.289551 
	C481.788635,587.592285 490.530060,592.112427 499.936584,590.159546 
	C499.936584,585.629639 499.936584,581.065186 499.936584,575.882812 
	C493.504578,575.882812 487.439117,575.882812 481.341400,575.882812 
	C481.341400,565.994812 481.341400,556.733276 481.341400,546.857422 
	C487.008636,546.857422 492.402374,546.857422 497.991821,546.857422 
	C497.991821,542.492249 497.991821,538.747864 497.991821,534.438538 
	C493.389862,534.438538 489.094543,534.333496 484.807526,534.476135 
	C482.027893,534.568542 480.883606,533.562500 481.011383,530.712036 
	C481.179535,526.960205 481.052704,523.195129 481.052704,519.321533 
	C474.817383,519.321533 469.402466,519.321533 463.444550,519.321533 
	C463.444550,530.553955 463.444550,541.519104 463.444336,553.477173 
M375.317017,578.478271 
	C375.317017,582.428955 375.317017,586.379578 375.317017,590.582031 
	C381.348816,590.582031 386.741028,590.582031 392.404724,590.582031 
	C392.404724,565.285095 392.404724,540.272583 392.404724,515.309326 
	C386.591400,515.309326 381.181488,515.309326 375.317139,515.309326 
	C375.317139,536.253601 375.317139,556.868958 375.317017,578.478271 
M244.219299,534.509888 
	C243.625793,536.198914 242.532623,537.883301 242.517136,539.577637 
	C242.381607,554.394104 242.438675,569.212402 242.438599,584.030151 
	C242.438583,586.148438 242.438599,588.266785 242.438599,590.450073 
	C248.618561,590.450073 254.143250,590.450073 260.090576,590.450073 
	C260.090576,580.738403 259.985321,571.434509 260.123444,562.134338 
	C260.236542,554.520203 263.602875,551.207336 271.130066,550.906006 
	C273.092163,550.827454 275.060028,550.894104 277.178345,550.894104 
	C277.178345,545.143799 277.178345,539.762085 277.178345,534.197388 
	C269.865356,533.551453 264.501740,536.508240 259.870850,542.803833 
	C259.503571,539.150452 259.279694,536.923218 259.031494,534.454285 
	C254.060120,534.454285 249.576782,534.454285 244.219299,534.509888 
M292.534882,590.867493 
	C295.475861,590.867493 298.416870,590.867493 301.593323,590.867493 
	C301.593323,571.801758 301.593323,553.421448 301.593323,534.882202 
	C295.715698,534.882202 290.181030,534.882202 284.724060,534.882202 
	C284.724060,553.739563 284.724060,572.147034 284.724060,590.867493 
	C287.285553,590.867493 289.437958,590.867493 292.534882,590.867493 
M286.026611,528.809509 
	C291.115906,528.809509 296.205200,528.809509 301.480347,528.809509 
	C301.480347,523.900391 301.480347,519.665588 301.480347,515.211853 
	C295.741180,515.211853 290.327209,515.211853 284.018097,515.211853 
	C284.413971,519.853271 284.785614,524.210449 286.026611,528.809509 
z"/>
<path fill="#1C1B1B" opacity="1.000000" stroke="none" 
	d="
M414.556427,323.627258 
	C396.873047,350.250641 393.866089,378.150635 408.220520,406.344879 
	C423.026978,435.426941 447.930756,450.918610 480.587372,451.712585 
	C515.054321,452.550537 549.558777,452.096802 584.043823,451.825653 
	C600.542603,451.695953 614.315002,444.898529 625.401062,432.632904 
	C626.382080,431.547516 627.969360,431.010132 629.275085,430.218262 
	C629.729797,431.709137 630.677490,433.240295 630.559631,434.684418 
	C629.765442,444.414673 630.227417,454.568756 627.487183,463.751404 
	C621.922607,482.398621 603.741699,494.877014 584.227295,494.953735 
	C545.075623,495.107666 505.920624,495.267303 466.771301,494.927826 
	C423.054932,494.548767 383.276733,463.001129 372.288818,420.640594 
	C361.228333,378.000336 380.145538,333.189697 418.602539,310.932892 
	C419.323181,310.515839 420.009918,309.826233 420.767914,309.737549 
	C421.919739,309.602783 423.120087,309.883453 424.299805,309.987671 
	C424.019958,311.003906 424.016022,312.239044 423.413086,312.998962 
	C420.622162,316.516876 417.664795,319.902740 414.556427,323.627258 
z"/>
<path fill="#1C1B1B" opacity="1.000000" stroke="none" 
	d="
M577.773071,344.799164 
	C568.614746,359.546539 556.799866,371.058838 541.991394,379.411865 
	C540.629395,380.180176 538.737061,380.008484 537.091003,380.273285 
	C537.702576,378.746277 537.947815,376.890472 538.979614,375.740540 
	C562.076233,349.999725 568.728333,320.610107 555.270386,288.686371 
	C541.727478,256.560944 515.903259,239.493805 481.171326,238.384933 
	C446.548584,237.279556 411.862274,237.904358 377.207184,238.186371 
	C360.932159,238.318817 347.194550,244.840942 336.232117,257.043640 
	C335.136780,258.262909 333.392670,258.899353 331.949646,259.806274 
	C331.499359,258.150574 330.708923,256.504333 330.662567,254.837387 
	C330.523773,249.844376 330.486816,244.833435 330.746338,239.847000 
	C332.051025,214.776779 352.422180,195.136185 377.533203,195.038040 
	C415.523163,194.889587 453.514130,194.969193 491.504639,195.003357 
	C569.503906,195.073517 616.895386,277.035980 577.773071,344.799164 
z"/>
<path fill="#1D1C1B" opacity="1.000000" stroke="none" 
	d="
M330.591980,305.007111 
	C330.315521,292.780487 330.363037,281.086945 336.643738,270.552948 
	C345.904022,255.021423 359.641907,246.554184 377.702881,246.385117 
	C411.853882,246.065430 446.020660,245.764008 480.160828,246.451065 
	C510.158783,247.054764 533.086670,261.055908 546.277222,288.076721 
	C558.870361,313.873627 555.759705,339.214569 539.157776,362.695648 
	C537.870789,364.515930 535.557739,365.610748 533.721619,367.042755 
	C533.799011,364.783783 533.413635,362.390900 534.022705,360.285767 
	C544.030518,325.696045 518.796082,291.227936 481.564911,289.741821 
	C461.942871,288.958588 442.199585,288.791138 422.614899,290.012177 
	C384.787689,292.370575 356.342590,310.903961 336.691895,343.154999 
	C336.172363,344.007568 335.879639,345.058990 335.201630,345.738983 
	C334.358551,346.584534 333.224243,347.139679 332.215698,347.820251 
	C331.678223,346.710510 330.707001,345.612671 330.676056,344.488983 
	C330.515747,338.662140 330.593658,332.828705 330.592102,326.997559 
	C330.590210,319.833527 330.591797,312.669525 330.591980,305.007111 
z"/>
<path fill="#1E1C1B" opacity="1.000000" stroke="none" 
	d="
M521.000244,400.472870 
	C541.925598,401.187012 561.644592,398.537933 580.108032,388.987579 
	C599.454956,378.980225 614.435486,364.564728 625.298157,345.739716 
	C626.117615,344.319580 627.659424,343.316254 628.865417,342.119141 
	C629.459290,343.834503 630.554871,345.545837 630.568848,347.265930 
	C630.699646,363.425812 630.744873,379.587952 630.622681,395.747955 
	C630.415222,423.180084 609.823242,443.622681 582.291199,443.690277 
	C548.969910,443.772095 515.647400,443.857880 482.326813,443.675385 
	C427.451172,443.374878 392.219543,389.386200 414.587830,339.856262 
	C416.892975,334.752014 420.333832,330.127533 423.550781,325.490692 
	C424.388489,324.283234 426.369446,323.868927 427.825317,323.090363 
	C427.860962,324.603119 428.280731,326.228699 427.874481,327.611633 
	C421.956940,347.756714 425.502075,365.990936 439.452545,381.696808 
	C450.790924,394.461914 465.445587,400.446930 482.514282,400.468353 
	C495.176239,400.484253 507.838257,400.472321 521.000244,400.472870 
z"/>
<path fill="#1D1C1B" opacity="1.000000" stroke="none" 
	d="
M317.281342,316.000549 
	C317.281311,325.157959 317.364136,333.816803 317.213837,342.471558 
	C317.182617,344.267609 316.286438,346.048615 315.788910,347.836548 
	C314.453247,346.570374 312.731842,345.529877 311.839417,344.004395 
	C297.037567,318.702972 275.803192,301.402466 247.493423,293.705078 
	C237.822601,291.075653 227.530609,290.186127 217.463943,289.691132 
	C204.010895,289.029633 190.498932,289.398346 177.016449,289.601471 
	C172.754227,289.665680 171.136017,288.446594 171.256058,283.947418 
	C171.549011,272.966980 171.442230,261.972321 171.299423,250.985962 
	C171.255112,247.577805 172.393585,246.236282 175.893677,246.245590 
	C207.692673,246.330292 239.500519,245.848038 271.288513,246.447556 
	C297.533234,246.942520 317.112823,267.807983 317.273010,294.023468 
	C317.316742,301.182251 317.280853,308.341522 317.281342,316.000549 
z"/>
<path fill="#1C1B1A" opacity="1.000000" stroke="none" 
	d="
M217.000000,238.071320 
	C203.012344,238.070831 189.523819,237.986145 176.037674,238.128967 
	C172.659058,238.164749 171.255798,237.200516 171.305801,233.627579 
	C171.464279,222.306839 171.444702,210.981537 171.312576,199.660095 
	C171.273788,196.335388 172.185730,194.920090 175.815674,194.933594 
	C207.785904,195.052628 239.759308,194.765564 271.726532,195.100800 
	C295.099426,195.345917 314.993652,214.268875 316.994904,237.631699 
	C317.533234,243.916428 317.259247,250.278229 317.170990,256.602020 
	C317.155670,257.699982 316.203735,258.784821 315.684387,259.875702 
	C314.718170,259.357452 313.487183,259.064880 312.824860,258.287689 
	C299.698090,242.884583 282.717102,237.376160 262.955597,237.979385 
	C247.816910,238.441513 232.652802,238.071304 217.000000,238.071320 
z"/>
<path fill="#1E1C1B" opacity="1.000000" stroke="none" 
	d="
M281.523132,362.757019 
	C272.721710,337.313110 256.890533,318.052338 234.317749,304.210663 
	C232.780960,303.268280 231.673340,301.625977 230.366135,300.309174 
	C232.299789,299.941589 234.338898,298.974884 236.151672,299.294006 
	C282.043884,307.373077 316.671814,347.885223 317.233246,394.329102 
	C317.500916,416.470978 317.363037,438.619202 317.249420,460.763733 
	C317.171143,476.022003 307.377319,489.134216 293.173157,493.446259 
	C287.935364,495.036316 286.991638,494.385498 286.988556,488.941315 
	C286.971283,458.637482 287.463409,428.321991 286.734955,398.035675 
	C286.454346,386.368469 283.418488,374.767517 281.523132,362.757019 
z"/>
<path fill="#1E1C1B" opacity="1.000000" stroke="none" 
	d="
M561.000244,210.961670 
	C556.073486,207.515945 551.359070,204.382812 546.813904,201.020935 
	C545.562866,200.095566 544.817078,198.487076 543.839478,197.192017 
	C545.341919,196.899292 546.934021,196.124557 548.333679,196.384750 
	C578.747559,202.038589 602.291443,217.976624 617.584229,244.859833 
	C651.258118,304.054962 616.964539,377.764130 550.101257,390.660828 
	C549.121948,390.849701 548.088745,391.161072 547.142212,391.015350 
	C545.968262,390.834625 544.858643,390.236328 543.721191,389.818390 
	C544.411499,388.820068 544.905579,387.564392 545.823425,386.864380 
	C552.824158,381.524994 560.533813,376.951813 566.865234,370.924164 
	C613.680786,326.354370 610.968750,252.442642 561.000244,210.961670 
z"/>
<path fill="#1E1C1B" opacity="1.000000" stroke="none" 
	d="
M346.996948,341.969788 
	C362.657379,319.241486 383.639587,305.107483 410.361572,299.584656 
	C411.013489,299.449951 411.678070,299.142395 412.311768,299.198364 
	C414.018188,299.349121 415.711121,299.653198 417.409393,299.896423 
	C416.300781,301.288177 415.471558,303.144012 414.042877,304.004089 
	C374.036469,328.088196 353.984497,372.233032 363.210632,417.651367 
	C369.439514,448.315094 386.573944,471.646973 413.102844,488.182861 
	C414.835449,489.262848 416.016663,491.227448 417.454346,492.780609 
	C415.303162,492.942566 413.060669,493.585510 411.014069,493.196808 
	C342.877502,480.255951 307.865753,402.565155 346.996948,341.969788 
z"/>
<path fill="#201D1C" opacity="1.000000" stroke="none" 
	d="
M248.460205,382.999817 
	C248.885818,367.074097 248.522720,351.620453 241.148544,337.648285 
	C236.843613,329.491577 230.924057,322.190948 225.803589,314.457062 
	C224.884949,313.069550 224.320816,311.447296 223.593018,309.933441 
	C225.357971,310.161713 227.447266,309.853973 228.840240,310.696930 
	C260.439484,329.818481 277.784302,357.745941 278.627563,394.799042 
	C279.347137,426.417633 278.716003,458.065796 278.855194,489.700134 
	C278.873352,493.833038 277.612762,495.284576 273.439911,495.091492 
	C266.960266,494.791748 260.442139,494.748291 253.968063,495.103088 
	C249.463348,495.349915 248.356644,493.698303 248.375137,489.393280 
	C248.526718,454.095978 248.460327,418.797760 248.460205,382.999817 
z"/>
<path fill="#211E1C" opacity="1.000000" stroke="none" 
	d="
M368.985657,571.911499 
	C364.070618,588.530334 350.131683,596.168030 336.001709,590.173889 
	C333.319366,589.036011 330.957642,587.142273 327.801758,585.199524 
	C327.801758,593.104431 327.801758,600.759033 327.801758,608.704224 
	C321.688538,608.704224 316.276855,608.704224 310.413391,608.704224 
	C310.413391,584.254333 310.413391,559.744141 310.413391,534.844360 
	C315.802490,534.844360 321.213898,534.844360 326.978790,534.844360 
	C327.310364,536.403748 327.672485,538.106750 327.822021,538.809937 
	C333.197205,536.938538 338.418427,534.156738 343.914886,533.415161 
	C354.195282,532.028076 363.714722,538.746033 367.578888,548.890320 
	C370.387390,556.263367 370.510040,563.837524 368.985657,571.911499 
M326.699005,564.309387 
	C326.911987,565.790710 327.014069,567.298218 327.357269,568.748718 
	C328.784027,574.778931 332.726440,578.320496 338.324921,578.708130 
	C343.923340,579.095825 349.552887,575.748657 350.542633,569.793884 
	C351.405487,564.602783 351.119965,558.876526 349.830292,553.768372 
	C348.526672,548.605042 343.481995,546.433838 337.888489,546.809631 
	C332.561951,547.167542 329.213623,550.102295 327.803009,555.040710 
	C327.037933,557.719055 327.016052,560.609741 326.699005,564.309387 
z"/>
<path fill="#1E1C1B" opacity="1.000000" stroke="none" 
	d="
M222.734909,362.000427 
	C222.500992,349.730286 223.882980,337.824768 219.614014,326.387817 
	C219.264862,325.452423 220.052811,324.092529 220.312393,322.929901 
	C221.527573,323.561798 223.106445,323.896606 223.902466,324.870972 
	C233.328964,336.409607 238.853348,349.627411 239.884369,364.505646 
	C240.401215,371.963867 240.242081,379.474548 240.249084,386.961578 
	C240.280853,420.916687 240.186249,454.872253 240.351852,488.826599 
	C240.374649,493.500732 239.201431,495.254913 234.232895,495.121185 
	C222.741577,494.811920 222.735016,495.054474 222.735016,483.340729 
	C222.735001,443.060577 222.734985,402.780426 222.734909,362.000427 
z"/>
<path fill="#1E1C1B" opacity="1.000000" stroke="none" 
	d="
M550.970581,587.031677 
	C541.726562,592.777100 532.147766,593.370789 522.329346,590.423157 
	C508.280792,586.205627 500.824127,573.648804 502.756866,558.015747 
	C504.484070,544.045593 515.261169,534.017395 529.645630,532.995361 
	C550.021484,531.547729 564.552124,546.653809 561.751648,566.925781 
	C548.089050,566.925781 534.347412,566.925781 520.589111,566.925781 
	C521.113342,576.937744 532.085754,582.687683 541.079651,576.722412 
	C547.754089,572.295532 554.157471,573.484070 561.611450,573.057251 
	C559.783569,579.313354 556.076050,583.463745 550.970581,587.031677 
M522.754272,550.241455 
	C521.923340,552.068848 521.092468,553.896240 520.063293,556.159607 
	C528.807861,556.159607 536.619690,556.159607 544.809753,556.159607 
	C544.356079,551.547180 542.363037,548.562317 538.485352,547.082458 
	C532.951477,544.970581 527.774963,545.612122 522.754272,550.241455 
z"/>
<path fill="#1E1C1B" opacity="1.000000" stroke="none" 
	d="
M433.001343,567.008301 
	C427.340729,567.023315 422.179871,567.034241 417.019104,567.063416 
	C416.696625,567.065247 416.374939,567.210388 416.053284,567.290466 
	C415.653809,572.266113 418.009369,576.739929 423.091370,577.549866 
	C427.597839,578.268066 433.360168,578.523560 436.862762,576.298584 
	C441.540222,573.327332 445.940521,573.001526 450.860504,573.056213 
	C452.642548,573.075989 454.424988,573.059326 456.301697,573.059326 
	C453.547058,586.097839 437.268463,594.551941 421.663116,591.468567 
	C404.195923,588.017334 394.724884,573.682739 398.164734,555.903259 
	C401.222900,540.096619 416.816864,530.202576 433.849823,533.261902 
	C449.225250,536.023499 459.550171,550.963257 456.761200,567.008240 
	C449.068695,567.008240 441.284882,567.008240 433.001343,567.008301 
M438.907410,551.750000 
	C434.981873,546.518372 429.683685,544.675476 423.712067,546.592590 
	C419.147400,548.058044 416.107330,550.858582 415.689331,556.553040 
	C423.106079,556.553040 430.183319,556.567505 437.260437,556.546814 
	C440.703857,556.536743 439.766388,554.370422 438.907410,551.750000 
z"/>
<path fill="#241F1D" opacity="1.000000" stroke="none" 
	d="
M585.934998,560.472412 
	C585.926636,570.702637 585.926636,580.475952 585.926636,590.548157 
	C579.869812,590.548157 574.464905,590.548157 568.689392,590.548157 
	C568.689392,572.045044 568.689392,553.650940 568.689392,534.849854 
	C574.280518,534.849854 579.818420,534.849854 585.539185,534.849854 
	C585.774170,536.497498 585.981567,537.951538 586.270996,539.980530 
	C587.495911,539.195984 588.549988,538.608032 589.509033,537.892517 
	C596.000488,533.049133 603.216370,532.101379 610.836304,534.213928 
	C616.219971,535.706604 619.948853,539.371765 621.038940,544.830994 
	C622.040771,549.848083 622.486267,555.032898 622.606689,560.157227 
	C622.840698,570.115662 622.675171,580.083496 622.675171,590.451172 
	C616.849976,590.451172 611.456543,590.451172 605.370911,590.451172 
	C605.279419,588.720154 605.098450,586.810303 605.091248,584.899780 
	C605.058472,576.242371 605.125671,567.584473 605.058899,558.927429 
	C604.992798,550.348389 602.866272,547.167053 597.165161,546.802307 
	C590.440552,546.371948 587.167725,549.690002 586.107605,558.024841 
	C586.023682,558.684753 585.996765,559.351807 585.934998,560.472412 
z"/>
<path fill="#241F1D" opacity="1.000000" stroke="none" 
	d="
M211.812897,519.045776 
	C213.586441,519.123840 214.886536,519.201782 216.922501,519.323853 
	C216.922501,522.915894 217.160553,526.370117 216.859558,529.776672 
	C216.517868,533.643982 218.104538,534.744446 221.737579,534.502563 
	C225.682266,534.239868 229.657974,534.442993 233.962738,534.442993 
	C233.962738,538.671509 233.962738,542.407227 233.962738,546.726685 
	C228.454239,546.726685 223.060593,546.726685 217.301941,546.726685 
	C217.301941,556.673706 217.301941,566.045654 217.301941,576.020325 
	C223.586304,576.020325 229.648422,576.020325 235.980713,576.020325 
	C235.980713,581.193970 235.980713,585.765869 235.980713,590.284119 
	C225.916748,591.865417 217.854370,587.557373 214.025208,579.174438 
	C213.389114,577.781860 211.458435,576.458069 209.898315,576.103149 
	C204.005142,574.762268 200.136612,571.850220 199.966797,565.872803 
	C199.528656,550.449402 199.820099,535.005249 199.820099,519.045654 
	C203.776047,519.045654 207.557755,519.045654 211.812897,519.045776 
z"/>
<path fill="#241F1D" opacity="1.000000" stroke="none" 
	d="
M463.444458,552.980713 
	C463.444550,541.519104 463.444550,530.553955 463.444550,519.321533 
	C469.402466,519.321533 474.817383,519.321533 481.052704,519.321533 
	C481.052704,523.195129 481.179535,526.960205 481.011383,530.712036 
	C480.883606,533.562500 482.027893,534.568542 484.807526,534.476135 
	C489.094543,534.333496 493.389862,534.438538 497.991821,534.438538 
	C497.991821,538.747864 497.991821,542.492249 497.991821,546.857422 
	C492.402374,546.857422 487.008636,546.857422 481.341400,546.857422 
	C481.341400,556.733276 481.341400,565.994812 481.341400,575.882812 
	C487.439117,575.882812 493.504578,575.882812 499.936584,575.882812 
	C499.936584,581.065186 499.936584,585.629639 499.936584,590.159546 
	C490.530060,592.112427 481.788635,587.592285 478.105072,579.289551 
	C477.511200,577.950928 475.914032,576.483215 474.530365,576.165710 
	C467.442474,574.539185 464.438568,571.641113 463.714600,564.463867 
	C463.348053,560.829529 463.517334,557.141113 463.444458,552.980713 
z"/>
<path fill="#25201D" opacity="1.000000" stroke="none" 
	d="
M375.317078,577.981323 
	C375.317139,556.868958 375.317139,536.253601 375.317139,515.309326 
	C381.181488,515.309326 386.591400,515.309326 392.404724,515.309326 
	C392.404724,540.272583 392.404724,565.285095 392.404724,590.582031 
	C386.741028,590.582031 381.348816,590.582031 375.317017,590.582031 
	C375.317017,586.379578 375.317017,582.428955 375.317078,577.981323 
z"/>
<path fill="#25201D" opacity="1.000000" stroke="none" 
	d="
M244.656372,534.482056 
	C249.576782,534.454285 254.060120,534.454285 259.031494,534.454285 
	C259.279694,536.923218 259.503571,539.150452 259.870850,542.803833 
	C264.501740,536.508240 269.865356,533.551453 277.178345,534.197388 
	C277.178345,539.762085 277.178345,545.143799 277.178345,550.894104 
	C275.060028,550.894104 273.092163,550.827454 271.130066,550.906006 
	C263.602875,551.207336 260.236542,554.520203 260.123444,562.134338 
	C259.985321,571.434509 260.090576,580.738403 260.090576,590.450073 
	C254.143250,590.450073 248.618561,590.450073 242.438599,590.450073 
	C242.438599,588.266785 242.438583,586.148438 242.438599,584.030151 
	C242.438675,569.212402 242.381607,554.394104 242.517136,539.577637 
	C242.532623,537.883301 243.625793,536.198914 244.656372,534.482056 
z"/>
<path fill="#26201E" opacity="1.000000" stroke="none" 
	d="
M292.062622,590.867493 
	C289.437958,590.867493 287.285553,590.867493 284.724060,590.867493 
	C284.724060,572.147034 284.724060,553.739563 284.724060,534.882202 
	C290.181030,534.882202 295.715698,534.882202 301.593323,534.882202 
	C301.593323,553.421448 301.593323,571.801758 301.593323,590.867493 
	C298.416870,590.867493 295.475861,590.867493 292.062622,590.867493 
z"/>
<path fill="#26201E" opacity="1.000000" stroke="none" 
	d="
M285.591919,528.688599 
	C284.785614,524.210449 284.413971,519.853271 284.018097,515.211853 
	C290.327209,515.211853 295.741180,515.211853 301.480347,515.211853 
	C301.480347,519.665588 301.480347,523.900391 301.480347,528.809509 
	C296.205200,528.809509 291.115906,528.809509 285.591919,528.688599 
z"/>
<path fill="#F98C5E" opacity="1.000000" stroke="none" 
	d="
M326.678986,563.856995 
	C327.016052,560.609741 327.037933,557.719055 327.803009,555.040710 
	C329.213623,550.102295 332.561951,547.167542 337.888489,546.809631 
	C343.481995,546.433838 348.526672,548.605042 349.830292,553.768372 
	C351.119965,558.876526 351.405487,564.602783 350.542633,569.793884 
	C349.552887,575.748657 343.923340,579.095825 338.324921,578.708130 
	C332.726440,578.320496 328.784027,574.778931 327.357269,568.748718 
	C327.014069,567.298218 326.911987,565.790710 326.678986,563.856995 
z"/>
<path fill="#EC855A" opacity="1.000000" stroke="none" 
	d="
M523.002502,549.972473 
	C527.774963,545.612122 532.951477,544.970581 538.485352,547.082458 
	C542.363037,548.562317 544.356079,551.547180 544.809753,556.159607 
	C536.619690,556.159607 528.807861,556.159607 520.063293,556.159607 
	C521.092468,553.896240 521.923340,552.068848 523.002502,549.972473 
z"/>
<path fill="#EC855A" opacity="1.000000" stroke="none" 
	d="
M439.068787,552.087646 
	C439.766388,554.370422 440.703857,556.536743 437.260437,556.546814 
	C430.183319,556.567505 423.106079,556.553040 415.689331,556.553040 
	C416.107330,550.858582 419.147400,548.058044 423.712067,546.592590 
	C429.683685,544.675476 434.981873,546.518372 439.068787,552.087646 
z"/>
</svg>