<svg version="1.1" id="Layer_1" xmlns="http://www.w3.org/2000/svg" xmlns:xlink="http://www.w3.org/1999/xlink" x="0px" y="0px"
	 width="100%" viewBox="0 0 320 262" enable-background="new 0 0 320 262" xml:space="preserve">
<path fill="#010101" opacity="1.000000" stroke="none" 
	d="
M192.000000,263.000000 
	C128.000000,263.000000 64.500015,263.000000 1.000017,263.000000 
	C1.000011,175.666687 1.000011,88.333366 1.000006,1.000041 
	C107.666634,1.000027 214.333267,1.000027 320.999939,1.000013 
	C320.999939,88.333290 320.999939,175.666580 320.999969,262.999939 
	C278.166656,263.000000 235.333328,263.000000 192.000000,263.000000 
M189.248932,119.786560 
	C188.532440,120.121574 187.212234,120.792336 187.185287,120.743866 
	C184.698959,116.273163 180.990509,118.853363 177.693359,118.659538 
	C177.693359,131.443588 177.693359,143.836227 177.693359,156.371277 
	C180.669434,156.371277 183.270813,156.371277 186.420151,156.371277 
	C186.420151,154.522766 186.413803,152.903275 186.421280,151.283859 
	C186.448212,145.452454 186.264984,139.609589 186.575592,133.793198 
	C186.838379,128.872589 189.929688,125.860313 193.923279,125.883484 
	C197.775116,125.905830 200.157547,128.674332 200.564850,133.747726 
	C200.697784,135.403564 200.604492,137.078003 200.605240,138.743927 
	C200.607803,144.535004 200.606232,150.326080 200.606232,156.254974 
	C203.835770,156.254974 206.556366,156.254974 209.671448,156.254974 
	C209.671448,153.953064 209.667694,151.985748 209.672180,150.018448 
	C209.683945,144.852615 209.557831,139.681488 209.751694,134.522415 
	C209.960144,128.975143 212.981201,125.727837 217.386322,125.884521 
	C221.411972,126.027718 223.645203,128.924347 223.869568,134.390396 
	C223.944687,136.220505 223.886017,138.056168 223.886246,139.889282 
	C223.886917,145.340866 223.886475,150.792450 223.886475,156.293915 
	C227.226242,156.293915 229.979706,156.293915 232.977417,156.293915 
	C232.977417,147.358994 233.351181,138.702194 232.871658,130.092896 
	C232.397949,121.588043 226.418137,116.721138 217.923569,117.865784 
	C213.987366,118.396179 210.261948,120.490585 206.205215,121.961418 
	C201.261185,117.051979 197.194000,116.323372 189.248932,119.786560 
M129.938507,146.451721 
	C129.938507,132.370728 129.938507,118.289742 129.938507,104.045532 
	C126.665016,104.045532 123.914391,104.045532 120.683990,104.045532 
	C120.683990,109.673187 120.683990,115.068352 120.683990,120.925110 
	C118.603241,120.067352 117.125038,119.377655 115.593246,118.840897 
	C109.982803,116.874886 104.470627,116.996033 99.226692,119.987663 
	C90.307999,125.075745 86.880112,136.913803 91.439369,146.636322 
	C95.765137,155.860931 106.537300,159.843796 116.426178,155.903931 
	C117.758629,155.373062 119.257355,154.434235 120.498306,154.663376 
	C123.477341,155.213409 126.348892,156.345642 129.938599,157.450668 
	C129.938599,153.051987 129.938599,150.240845 129.938507,146.451721 
M138.176941,124.751442 
	C131.419312,135.000916 133.209122,147.858673 142.259048,154.076660 
	C150.938049,160.039795 164.544769,158.060867 170.362625,149.950958 
	C167.257065,147.109253 164.545135,145.979553 160.008316,148.396286 
	C152.562836,152.362411 144.457047,148.007217 144.038620,140.188721 
	C153.595673,140.188721 163.139465,140.188721 172.590378,140.188721 
	C173.773544,129.997940 170.012161,122.515022 162.282059,118.950478 
	C154.559967,115.389626 145.002411,117.504028 138.176941,124.751442 
M260.263519,131.565414 
	C258.412415,136.020523 256.561310,140.475632 254.297623,145.923721 
	C251.130264,138.012161 248.409821,131.238693 245.706512,124.458366 
	C242.944580,117.530930 241.773544,116.976852 234.189377,119.235703 
	C238.477478,129.886780 242.748825,140.524048 247.042343,151.152359 
	C250.714371,160.242203 248.316956,164.857117 238.842896,166.682358 
	C238.842896,169.080215 238.842896,171.492050 238.842896,173.869141 
	C247.727341,174.784042 251.042496,173.157578 254.837753,165.771896 
	C256.584900,162.371872 258.007385,158.801208 259.503235,155.276581 
	C264.616913,143.227524 269.697815,131.164551 274.829590,119.016006 
	C266.282440,117.342873 266.036804,117.457359 263.187744,124.377197 
	C262.300507,126.532234 261.458221,128.705780 260.263519,131.565414 
M59.399036,124.756027 
	C59.399036,122.689041 59.399036,120.622055 59.399036,118.613998 
	C55.966976,118.613998 53.370384,118.613998 50.295525,118.613998 
	C50.295525,125.529572 50.277531,132.146545 50.306461,138.763306 
	C50.315182,140.757950 50.281532,142.776855 50.564095,144.741989 
	C51.670036,152.433502 57.552864,157.075562 66.603119,157.539948 
	C75.587807,158.000961 83.545296,153.702362 84.315224,146.347519 
	C85.270241,137.224655 84.544022,127.925781 84.544022,118.722778 
	C81.648735,118.722778 78.932007,118.722778 75.955452,118.722778 
	C75.955452,126.096947 76.042664,133.082047 75.927780,140.063828 
	C75.836311,145.623245 72.827675,148.901169 68.001060,149.063004 
	C62.951611,149.232300 59.629616,145.918488 59.434338,140.181091 
	C59.270187,135.358398 59.399498,130.525696 59.399036,124.756027 
M58.846043,105.223671 
	C64.500160,100.328072 70.082298,99.900475 76.088120,104.889900 
	C78.495987,106.890274 81.646652,107.996521 84.667015,109.621559 
	C86.227196,100.586426 85.621384,101.009140 79.605743,96.279823 
	C71.226418,89.692238 64.052521,89.958771 55.761101,96.359779 
	C50.006390,100.802414 48.785431,102.166275 51.277725,109.491333 
	C53.630108,108.158592 55.914845,106.864174 58.846043,105.223671 
z"/>
<path fill="#EFEFEF" opacity="1.000000" stroke="none" 
	d="
M189.570648,119.574860 
	C197.194000,116.323372 201.261185,117.051979 206.205215,121.961418 
	C210.261948,120.490585 213.987366,118.396179 217.923569,117.865784 
	C226.418137,116.721138 232.397949,121.588043 232.871658,130.092896 
	C233.351181,138.702194 232.977417,147.358994 232.977417,156.293915 
	C229.979706,156.293915 227.226242,156.293915 223.886475,156.293915 
	C223.886475,150.792450 223.886917,145.340866 223.886246,139.889282 
	C223.886017,138.056168 223.944687,136.220505 223.869568,134.390396 
	C223.645203,128.924347 221.411972,126.027718 217.386322,125.884521 
	C212.981201,125.727837 209.960144,128.975143 209.751694,134.522415 
	C209.557831,139.681488 209.683945,144.852615 209.672180,150.018448 
	C209.667694,151.985748 209.671448,153.953064 209.671448,156.254974 
	C206.556366,156.254974 203.835770,156.254974 200.606232,156.254974 
	C200.606232,150.326080 200.607803,144.535004 200.605240,138.743927 
	C200.604492,137.078003 200.697784,135.403564 200.564850,133.747726 
	C200.157547,128.674332 197.775116,125.905830 193.923279,125.883484 
	C189.929688,125.860313 186.838379,128.872589 186.575592,133.793198 
	C186.264984,139.609589 186.448212,145.452454 186.421280,151.283859 
	C186.413803,152.903275 186.420151,154.522766 186.420151,156.371277 
	C183.270813,156.371277 180.669434,156.371277 177.693359,156.371277 
	C177.693359,143.836227 177.693359,131.443588 177.693359,118.659538 
	C180.990509,118.853363 184.698959,116.273163 187.185287,120.743866 
	C187.212234,120.792336 188.532440,120.121574 189.570648,119.574860 
z"/>
<path fill="#F1F1F1" opacity="1.000000" stroke="none" 
	d="
M129.938553,146.940704 
	C129.938599,150.240845 129.938599,153.051987 129.938599,157.450668 
	C126.348892,156.345642 123.477341,155.213409 120.498306,154.663376 
	C119.257355,154.434235 117.758629,155.373062 116.426178,155.903931 
	C106.537300,159.843796 95.765137,155.860931 91.439369,146.636322 
	C86.880112,136.913803 90.307999,125.075745 99.226692,119.987663 
	C104.470627,116.996033 109.982803,116.874886 115.593246,118.840897 
	C117.125038,119.377655 118.603241,120.067352 120.683990,120.925110 
	C120.683990,115.068352 120.683990,109.673187 120.683990,104.045532 
	C123.914391,104.045532 126.665016,104.045532 129.938507,104.045532 
	C129.938507,118.289742 129.938507,132.370728 129.938553,146.940704 
M120.958595,140.813644 
	C121.101494,139.828964 121.360100,138.845306 121.368706,137.859451 
	C121.429550,130.890884 116.316505,125.762627 109.516991,125.916130 
	C102.909134,126.065308 98.369576,131.221298 98.698318,138.203857 
	C98.955154,143.658859 102.388985,147.831665 107.473694,148.867737 
	C113.040398,150.002014 117.621643,147.479446 120.958595,140.813644 
z"/>
<path fill="#F2F2F2" opacity="1.000000" stroke="none" 
	d="
M138.402924,124.467331 
	C145.002411,117.504028 154.559967,115.389626 162.282059,118.950478 
	C170.012161,122.515022 173.773544,129.997940 172.590378,140.188721 
	C163.139465,140.188721 153.595673,140.188721 144.038620,140.188721 
	C144.457047,148.007217 152.562836,152.362411 160.008316,148.396286 
	C164.545135,145.979553 167.257065,147.109253 170.362625,149.950958 
	C164.544769,158.060867 150.938049,160.039795 142.259048,154.076660 
	C133.209122,147.858673 131.419312,135.000916 138.402924,124.467331 
M145.078629,133.031296 
	C151.161804,133.031296 157.244980,133.031296 163.434723,133.031296 
	C162.054535,127.391022 158.624161,124.829758 153.373047,125.116547 
	C148.299515,125.393639 144.882462,128.272842 145.078629,133.031296 
z"/>
<path fill="#F0F0F0" opacity="1.000000" stroke="none" 
	d="
M260.429443,131.218140 
	C261.458221,128.705780 262.300507,126.532234 263.187744,124.377197 
	C266.036804,117.457359 266.282440,117.342873 274.829590,119.016006 
	C269.697815,131.164551 264.616913,143.227524 259.503235,155.276581 
	C258.007385,158.801208 256.584900,162.371872 254.837753,165.771896 
	C251.042496,173.157578 247.727341,174.784042 238.842896,173.869141 
	C238.842896,171.492050 238.842896,169.080215 238.842896,166.682358 
	C248.316956,164.857117 250.714371,160.242203 247.042343,151.152359 
	C242.748825,140.524048 238.477478,129.886780 234.189377,119.235703 
	C241.773544,116.976852 242.944580,117.530930 245.706512,124.458366 
	C248.409821,131.238693 251.130264,138.012161 254.297623,145.923721 
	C256.561310,140.475632 258.412415,136.020523 260.429443,131.218140 
z"/>
<path fill="#F1F1F1" opacity="1.000000" stroke="none" 
	d="
M59.398964,125.226730 
	C59.399498,130.525696 59.270187,135.358398 59.434338,140.181091 
	C59.629616,145.918488 62.951611,149.232300 68.001060,149.063004 
	C72.827675,148.901169 75.836311,145.623245 75.927780,140.063828 
	C76.042664,133.082047 75.955452,126.096947 75.955452,118.722778 
	C78.932007,118.722778 81.648735,118.722778 84.544022,118.722778 
	C84.544022,127.925781 85.270241,137.224655 84.315224,146.347519 
	C83.545296,153.702362 75.587807,158.000961 66.603119,157.539948 
	C57.552864,157.075562 51.670036,152.433502 50.564095,144.741989 
	C50.281532,142.776855 50.315182,140.757950 50.306461,138.763306 
	C50.277531,132.146545 50.295525,125.529572 50.295525,118.613998 
	C53.370384,118.613998 55.966976,118.613998 59.399036,118.613998 
	C59.399036,120.622055 59.399036,122.689041 59.398964,125.226730 
z"/>
<path fill="#9535D8" opacity="1.000000" stroke="none" 
	d="
M58.522812,105.396713 
	C55.914845,106.864174 53.630108,108.158592 51.277725,109.491333 
	C48.785431,102.166275 50.006390,100.802414 55.761101,96.359779 
	C64.052521,89.958771 71.226418,89.692238 79.605743,96.279823 
	C85.621384,101.009140 86.227196,100.586426 84.667015,109.621559 
	C81.646652,107.996521 78.495987,106.890274 76.088120,104.889900 
	C70.082298,99.900475 64.500160,100.328072 58.522812,105.396713 
z"/>
<path fill="#080808" opacity="1.000000" stroke="none" 
	d="
M120.823532,141.202454 
	C117.621643,147.479446 113.040398,150.002014 107.473694,148.867737 
	C102.388985,147.831665 98.955154,143.658859 98.698318,138.203857 
	C98.369576,131.221298 102.909134,126.065308 109.516991,125.916130 
	C116.316505,125.762627 121.429550,130.890884 121.368706,137.859451 
	C121.360100,138.845306 121.101494,139.828964 120.823532,141.202454 
z"/>
<path fill="#121212" opacity="1.000000" stroke="none" 
	d="
M144.658173,132.922623 
	C144.882462,128.272842 148.299515,125.393639 153.373047,125.116547 
	C158.624161,124.829758 162.054535,127.391022 163.434723,133.031296 
	C157.244980,133.031296 151.161804,133.031296 144.658173,132.922623 
z"/>
</svg>